<svg width="631" height="611" viewBox="0 0 631 611" fill="none" xmlns="http://www.w3.org/2000/svg">
<path fill-rule="evenodd" clip-rule="evenodd" d="M196.746 400.108C120.379 417.91 76.685 393.054 65.6661 325.54C49.1376 224.268 105.129 117.875 181.954 107.676C258.779 97.4774 291.075 126.57 345.071 163.104C399.067 199.638 555.568 285.599 573.348 300.188C591.128 314.777 629.172 371.786 553.078 407.897C502.349 431.971 439.24 427.437 363.753 394.295C337.216 382.693 313.051 376.553 291.256 375.876C269.462 375.198 237.959 383.276 196.746 400.108Z" fill="#323232"/>
<path d="M283.798 271.537C290.662 276.017 293.422 281.812 292.078 288.923C285.649 298.56 282.435 306.904 282.435 313.957C282.435 321.009 281.951 330.184 280.983 341.479L227.553 342.607L227.44 342.54C226.012 342.567 224.609 342.589 223.229 342.607C211.337 342.762 200.787 344.337 200.289 344.414C196.396 345.018 189.379 337.794 187.431 335.347C184.302 331.415 182.815 326.761 182.154 321.696C181.53 316.917 182.41 312.476 184.137 308.217C186.156 303.242 189.315 298.936 193.32 295.143C197.712 291.117 202.442 287.83 207.744 285.406C207.95 285.312 211.755 283.439 211.938 283.463C212.06 283.48 218.144 285.429 226.605 289.382C236.208 282.556 246.594 275.333 257.766 267.714C268.257 265.782 276.934 267.057 283.798 271.537Z" fill="white"/>
<path fill-rule="evenodd" clip-rule="evenodd" d="M214.661 387.819C223.062 389.549 228.127 386.252 229.855 377.929C232.447 365.444 216.785 367.676 211.992 361.25C207.198 354.824 217.83 353.536 229.855 357.393C241.891 356.866 245.365 357.555 246.056 354.236C246.747 350.917 240.477 348.825 223.728 349.373C206.98 349.92 209.443 349.943 210.717 363.936C211.567 373.265 212.881 381.226 214.661 387.819Z" fill="white"/>
<path d="M423.456 414.483C416.999 409.142 412.451 405.782 410.013 403.634C404.192 398.503 398.229 393.534 392.357 388.462C391.149 387.419 389.976 386.297 388.983 385.054C387.736 383.495 388.02 382.42 389.989 381.66C391.542 381.061 393.24 380.786 394.898 380.521C399.842 379.73 404.795 378.992 409.752 378.282C411.929 377.97 414.125 377.787 416.309 377.515C416.699 377.467 417.071 377.272 417.452 377.145C417.263 376.838 417.118 376.489 416.878 376.23C414.966 374.165 413.035 372.116 411.109 370.063C410.94 369.882 410.76 369.711 410.585 369.536C410.859 369.47 411.129 369.382 411.407 369.341C416.482 368.592 421.555 367.838 426.633 367.108C429.967 366.628 433.3 366.132 436.644 365.738C440.066 365.336 443.499 365.01 446.933 364.726C450.005 364.473 453.089 364.366 456.16 364.11C458.127 363.946 460.076 363.559 462.044 363.4C464.504 363.201 466.977 363.169 469.44 363C472.517 362.79 475.587 362.48 478.664 362.275C481.25 362.102 483.845 362.055 486.432 361.88C488.518 361.739 490.594 361.432 492.681 361.306C494.72 361.183 496.767 361.196 498.811 361.148C504.101 361.024 509.392 360.873 514.684 360.786C517.921 360.732 521.187 360.531 524.388 360.876C526.058 361.056 527.966 361.919 529.156 363.094C532.163 366.062 534.828 369.379 537.623 372.562C539.337 374.514 541.053 376.464 542.74 378.44C546.294 382.603 549.822 386.79 553.379 390.951C554.484 392.243 555.666 393.469 556.776 394.758C557.094 395.127 557.28 395.61 557.527 396.041C557.177 395.755 556.135 394.863 556.481 395.179C590.797 426.397 446.284 433.035 423.456 414.483Z" fill="white"/>
<path d="M32.5596 299.127C32.6766 295.912 32.7761 292.697 32.9009 289.483C32.9412 288.445 33.0587 287.409 33.1228 286.372C33.6551 277.754 34.679 269.191 36.8844 260.836C38.6443 254.169 40.9681 247.684 43.7925 241.35C47.0143 234.125 50.9313 227.331 55.4444 220.871C57.7438 217.579 60.2553 214.407 62.9275 211.408C66.1426 207.798 69.4459 204.224 73.0491 201.01C77.1626 197.339 81.5832 193.994 86.0224 190.712C87.0108 189.981 88.7581 189.624 89.9376 189.929C92.0087 190.465 92.3083 192.266 90.724 193.641C87.1266 196.763 85.4148 200.749 85.1512 205.377C85.0055 207.934 85.245 210.512 85.1031 213.069C84.6352 221.499 87.0968 229.258 90.7421 236.66C94.2272 243.737 99.3019 249.565 106.583 252.969C110.762 254.923 115.23 256.293 119.63 257.739C123.452 258.994 127.368 259.963 131.23 261.099C135.02 262.213 138.752 263.223 142.767 261.885C144.827 261.198 146.372 263.04 145.584 265.036C142.601 272.585 140.06 280.42 134.82 286.785C131.678 290.603 128.041 294.136 124.152 297.202C118.442 301.702 111.875 304.911 105.317 308.071C98.9199 311.154 92.667 314.536 86.2416 317.557C79.0032 320.96 71.6678 324.164 64.3276 327.347C58.4057 329.915 52.4275 332.357 46.4433 334.779C45.0124 335.358 43.4796 335.765 41.9547 336.017C40.4267 336.271 37.0699 333.875 36.4702 332.291C34.9484 328.272 33.914 324.14 33.4868 319.857C33.2268 317.25 32.8768 314.653 32.4745 312.051C32.3816 311.866 32.3816 311.682 32.4745 311.405C32.6292 307.84 32.6941 304.368 32.7372 300.895C32.7384 300.799 32.5054 300.701 32.3816 300.604C32.3816 300.173 32.3816 299.742 32.3816 299.219C32.4435 299.127 32.5596 299.129 32.5596 299.127Z" fill="white"/>
<path fill-rule="evenodd" clip-rule="evenodd" d="M280.343 341.365L392.787 338.5H397.4C404.123 343.509 411.5 345.667 419.531 344.975C431.576 343.937 442.212 330.643 444.696 312.108C445.062 310.663 445.95 310.315 447.36 311.066C448.912 314.091 451.665 315.411 455.621 315.026C457.339 314.84 458.294 315.242 459.264 317.106C460.233 318.97 465.359 321.315 468.572 319.433C471.785 317.551 486.598 293.558 486.598 289.521C486.598 285.484 487.428 276.667 488.082 276.097C488.736 275.528 489.966 275.99 492.353 275.234C494.74 274.477 496.783 275.23 504.438 255.138C512.092 235.045 523.803 205.009 525.05 183.977C526.298 162.945 511.442 170.378 504.438 179.155C497.434 187.932 477.909 210.53 459.839 222.802C457.628 224.453 455.823 225.229 454.425 225.131C453.586 219.908 450.151 217.962 444.121 219.292C441.777 219.714 439.859 217.861 438.367 213.734C434.5 192.31 425.687 176.807 411.925 167.227C391.284 152.855 356.111 144.643 347.648 174.691C342.006 194.723 345.398 219.06 357.824 247.703L352.651 252.181C332.294 259.222 315.665 267.915 302.762 278.259C283.407 293.776 283.037 308.911 282.01 321.395C281.326 329.717 280.77 336.374 280.343 341.365Z" fill="white"/>
<path d="M238.736 254.852C238.908 253.224 238.986 251.586 239.174 249.961C239.184 249.873 240.011 249.686 240.249 249.85C242.462 251.37 244.651 252.928 246.796 254.544C247.377 254.982 247.423 255.417 247.686 254.272C248.098 252.481 250.646 251.981 252.172 253.253C255.672 256.172 257.438 260.096 258.718 264.363C259.829 268.065 259.389 271.827 259.497 275.567C259.566 277.967 261.815 279.777 264.174 279.874C265.919 279.946 267.754 280.711 269.323 281.577C273.121 283.671 275.562 286.976 276.762 291.139C278.054 295.622 276.852 299.614 274.253 303.339C271.89 306.727 269.738 310.275 266.308 312.759C264.411 314.134 262.225 315.274 260.74 317.009C259.145 318.873 257.313 320.088 255.141 320.927C249.791 322.991 243.944 320.314 241.324 315.852C238.557 309.966 228.679 314.763 224.852 306.08C222.92 303.214 222.168 300.811 222.585 300.571C223.093 300.278 222.39 299.536 221.49 298.591C217.559 294.462 214.068 289.99 211.679 284.755C211.302 283.929 210.913 283.076 210.748 282.195C210.647 281.654 210.798 280.881 211.149 280.507C211.37 280.272 212.248 280.441 212.693 280.684C213.359 281.048 213.887 281.657 214.502 282.124C215.55 282.921 216.132 282.582 215.848 281.339C215.041 277.807 215.783 274.455 217.025 271.215C217.695 269.468 218.785 267.873 219.796 266.281C219.893 266.129 220.866 266.359 221.289 266.632C222.074 267.14 222.754 267.811 223.478 268.414C223.527 267.449 223.542 266.481 223.637 265.52C223.693 264.949 223.833 264.378 224.007 263.829C224.874 261.078 225.339 260.939 227.635 262.664C227.943 262.895 228.311 263.046 228.652 263.234C228.698 262.884 228.76 262.535 228.789 262.183C229.043 259.16 228.438 256.418 226.228 254.173C226.202 254.147 226.681 253.358 226.957 253.336C230.14 253.086 233.324 252.954 236.235 254.655C236.831 255.002 237.425 255.352 238.111 255.794C238.388 255.542 238.698 255.211 238.736 254.852Z" fill="white"/>
<path fill-rule="evenodd" clip-rule="evenodd" d="M285.937 143.661C276.537 151.452 272.274 162.731 273.148 177.499C274.46 199.649 300.229 215.431 312.694 208.751C325.159 202.071 338.922 192.341 340.566 171.628C341.264 191.337 343.33 200.93 316.756 215.224C290.182 229.517 262.401 207.338 258.383 198.197C254.365 189.055 244.692 168.875 264.325 145.462C267.011 142.366 274.216 141.766 285.937 143.661Z" fill="white"/>
<path fill-rule="evenodd" clip-rule="evenodd" d="M509.909 402.833C512.182 402.584 514.277 402.384 516.356 402.076C521.079 401.375 525.792 400.604 530.514 399.893C533.324 399.471 536.176 399.265 538.946 398.668C540.889 398.248 542.65 398.521 544.44 399.11C544.727 399.205 544.948 399.505 545.2 399.709C544.898 399.878 544.609 400.159 544.291 400.199C540.14 400.723 535.977 401.16 531.832 401.727C527.664 402.296 523.517 403.018 519.352 403.613C516.449 404.028 513.53 404.323 510.624 404.711C509.109 404.913 507.611 405.239 506.096 405.441C503.951 405.727 501.793 405.917 499.649 406.206C497.133 406.545 494.628 406.965 492.114 407.313C490.092 407.593 488.06 407.797 486.038 408.073C483.462 408.424 480.892 408.825 478.317 409.186C476.418 409.452 474.515 409.693 472.612 409.935C470.608 410.191 468.596 410.391 466.601 410.701C465.394 410.889 464.282 410.88 463.924 409.49C463.596 408.223 464.244 407.23 465.478 406.956C467.168 406.582 468.903 406.377 470.629 406.214C472.679 406.021 474.739 405.938 476.796 405.827C479.327 405.691 481.863 405.62 484.392 405.438C487.082 405.244 489.764 404.935 492.452 404.707C495.613 404.439 498.78 404.243 501.938 403.939C503.579 403.781 505.204 403.449 506.838 403.21C507.797 403.07 508.761 402.958 509.909 402.833Z" fill="#E7EAEE"/>
<path fill-rule="evenodd" clip-rule="evenodd" d="M460.583 385.323C462.857 385.2 464.949 385.113 467.035 384.944C469.25 384.764 471.456 384.466 473.671 384.294C476.158 384.101 478.654 384.023 481.142 383.838C483.964 383.628 486.779 383.332 489.601 383.115C491.687 382.955 493.782 382.897 495.867 382.73C498.484 382.521 501.092 382.219 503.708 382.009C505.794 381.843 507.889 381.789 509.974 381.623C512.731 381.403 515.478 380.992 518.238 380.9C521.385 380.795 524.547 379.815 527.692 380.9C528.067 381.03 528.407 381.258 528.763 381.44C528.425 381.504 528.088 381.591 527.747 381.628C525.36 381.881 522.969 382.097 520.586 382.377C517.691 382.716 514.808 383.162 511.908 383.458C509.788 383.674 507.645 383.66 505.522 383.862C502.612 384.138 499.716 384.557 496.807 384.85C494.696 385.062 492.572 385.152 490.457 385.327C487.698 385.556 484.941 385.806 482.184 386.063C479.673 386.298 477.16 386.532 474.653 386.804C471.45 387.152 468.256 387.578 465.051 387.895C462.009 388.195 458.955 388.363 455.913 388.657C453.797 388.862 451.698 389.251 449.579 389.416C448.753 389.481 447.832 389.302 447.074 388.966C446.532 388.725 446.19 388.037 445.759 387.548C446.306 387.175 446.827 386.53 447.405 386.475C450.916 386.139 454.44 385.95 457.958 385.683C458.775 385.621 459.584 385.446 460.583 385.323Z" fill="#E7EAEE"/>
<path fill-rule="evenodd" clip-rule="evenodd" d="M267.127 431.877C266.937 432.03 266.837 432.147 266.741 432.144C265.873 432.118 265.004 432.072 264.136 432.032C264.965 431.46 265.723 430.58 266.637 430.37C270.233 429.547 273.473 428.095 276.474 425.953C280.394 423.155 282.815 419.485 283.696 414.796C283.832 414.074 283.628 413.75 282.757 413.755C281.512 413.761 280.265 413.558 279.023 413.417C276.591 413.142 274.655 411.423 274.441 409.372C274.304 408.058 276.278 405.304 277.736 404.594C281.128 402.941 284.897 406.204 285.861 409.03C286.249 410.167 286.433 409.755 286.946 409.287C289.366 407.074 290.159 404.233 289.967 401.113C289.761 397.778 288.292 395.096 285.399 393.22C284.396 392.569 284.012 391.644 284.789 390.462C285.636 389.173 287.988 389.086 288.907 390.226C290.149 391.766 291.239 393.542 291.924 395.388C293.587 399.865 293.161 404.218 290.364 408.224C290.164 408.51 289.999 408.841 289.742 409.065C287.546 410.971 286.363 413.343 285.471 416.138C282.824 424.427 276.748 429.32 268.512 431.77C268.115 431.888 267.652 431.785 267.127 431.877ZM278.33 406.809C276.74 407.75 276.306 410.452 277.811 410.922C279.549 411.465 281.557 411.165 283.449 411.184C283.53 411.184 283.666 410.709 283.691 410.447C283.938 407.906 281.555 406.152 278.33 406.809Z" fill="#FFB61D"/>
<path fill-rule="evenodd" clip-rule="evenodd" d="M488.992 393.426C494.239 392.928 499.298 392.391 504.364 391.945C507.954 391.628 511.557 391.467 515.149 391.172C517.366 390.99 519.574 390.697 521.784 390.435C524.834 390.072 527.885 389.396 530.929 389.43C532.665 389.45 534.684 390.014 535.867 391.772C535.959 391.909 536.062 392.037 536.16 392.169C535.931 392.215 535.685 392.338 535.475 392.294C531.505 391.453 527.6 392.267 523.661 392.63C520.915 392.883 518.123 392.581 515.359 392.706C512.585 392.831 509.821 393.187 507.051 393.423C503.992 393.684 500.929 393.886 497.874 394.188C496.234 394.351 494.613 394.715 492.975 394.91C490.54 395.199 488.092 395.384 485.658 395.676C482.873 396.011 480.086 396.346 477.321 396.806C474.033 397.353 470.775 398.079 467.489 398.643C464.235 399.201 460.975 399.796 457.692 400.085C456.196 400.217 454.613 399.751 453.118 399.367C451.969 399.071 452.23 398.261 452.962 397.73C453.553 397.301 454.277 396.93 454.987 396.819C457.123 396.484 459.28 396.284 461.43 396.042C463.703 395.786 465.973 395.504 468.251 395.303C471.493 395.017 474.744 394.83 477.985 394.534C479.954 394.354 481.91 394.017 483.877 393.809C485.516 393.637 487.163 393.55 488.992 393.426Z" fill="#E7EAEE"/>
<path fill-rule="evenodd" clip-rule="evenodd" d="M454.191 377.985C458.52 377.491 462.661 376.97 466.808 376.512C469.503 376.215 472.212 376.044 474.907 375.748C476.482 375.575 478.039 375.25 479.609 375.026C480.687 374.872 481.775 374.786 482.856 374.647C486.161 374.224 489.46 373.74 492.771 373.373C496.14 373 499.523 372.77 502.894 372.416C505.981 372.092 509.052 371.587 512.145 371.367C513.255 371.288 514.428 371.746 515.531 372.091C515.899 372.205 516.138 372.73 516.436 373.067C516.014 373.206 515.598 373.438 515.168 373.469C512.761 373.643 510.348 373.729 507.943 373.919C505.403 374.119 502.867 374.381 500.334 374.657C498.393 374.868 496.46 375.163 494.52 375.386C492.193 375.654 489.855 375.837 487.533 376.143C484.126 376.593 480.731 377.136 477.327 377.61C473.64 378.123 469.94 378.549 466.261 379.113C463.083 379.6 459.932 380.254 456.76 380.784C452.592 381.482 448.413 382.113 444.245 382.813C442.723 383.069 441.798 382.201 441.661 380.992C441.536 379.896 442.501 379.497 443.734 379.415C446.971 379.199 450.191 378.732 453.416 378.343C453.624 378.318 453.81 378.109 454.191 377.985Z" fill="#E7EAEE"/>
<path fill-rule="evenodd" clip-rule="evenodd" d="M502.551 416.813C498.512 417.318 494.658 417.812 490.808 418.333C489.168 418.554 487.537 418.98 485.898 419.001C485.365 419.008 484.307 417.913 484.389 417.515C484.557 416.706 485.25 415.5 485.884 415.39C488.582 414.921 491.338 414.803 494.071 414.538C496.537 414.299 499 414.025 501.466 413.786C504.199 413.521 506.934 413.266 509.67 413.029C512.733 412.763 515.797 412.504 518.863 412.274C520.964 412.117 523.072 412.056 525.17 411.879C527.639 411.671 530.098 411.355 532.566 411.141C534.541 410.969 536.527 410.927 538.5 410.74C540.536 410.547 542.561 410.245 544.592 410C544.837 409.97 545.106 409.937 545.333 410.007C546.118 410.247 546.889 410.533 547.665 410.802C546.981 411.038 546.313 411.398 545.61 411.49C541.453 412.037 537.285 412.505 533.125 413.031C530.356 413.381 527.599 413.82 524.829 414.151C522.287 414.455 519.729 414.63 517.187 414.934C515.849 415.095 514.537 415.49 513.198 415.637C510.348 415.952 507.487 416.162 504.634 416.444C503.996 416.507 503.369 416.687 502.551 416.813Z" fill="#E7EAEE"/>
<path fill-rule="evenodd" clip-rule="evenodd" d="M193.32 295.143C197.712 291.117 202.442 287.83 207.744 285.406C207.95 285.312 208.161 285.084 208.343 285.109C209.14 285.218 209.927 285.398 210.717 285.552C210.145 285.943 209.613 286.419 208.995 286.712C202.86 289.619 197.146 293.147 192.498 298.2C187.981 303.112 184.742 308.624 184.027 315.506C183.371 321.832 184.173 327.749 187.752 333.084C189.672 335.948 192.266 338.085 195.416 339.504C195.667 339.616 195.903 339.762 196.145 339.892C195.864 339.949 195.584 340.018 195.3 340.062C191.407 340.666 189.379 337.794 187.431 335.347C184.302 331.415 182.815 326.761 182.154 321.696C181.53 316.917 182.41 312.476 184.137 308.217C186.156 303.242 189.315 298.936 193.32 295.143Z" fill="#00160A"/>
<path fill-rule="evenodd" clip-rule="evenodd" d="M436.932 376.875C436.27 375.42 437.229 373.808 438.751 373.822C441.351 373.847 443.95 374.021 446.549 374.152C448.537 374.252 450.525 374.383 452.512 374.5C452.752 374.514 453.053 374.44 453.219 374.551C453.772 374.924 454.276 375.364 454.799 375.777C454.295 376.026 453.805 376.45 453.284 376.489C451.673 376.609 450.036 376.725 448.435 376.58C445.6 376.323 442.921 376.96 440.303 377.761C438.878 378.197 437.978 377.743 436.932 376.875Z" fill="#E7EAEE"/>
<path fill-rule="evenodd" clip-rule="evenodd" d="M61.4327 256.956C61.0619 259.206 60.6514 261.266 60.3348 263.34C60.1342 264.654 60.0893 265.991 59.946 267.315C59.7123 269.476 59.3015 271.629 59.2387 273.794C59.0868 279.034 59.1346 284.281 59.0227 289.523C58.9148 294.579 59.8892 299.473 61.0678 304.343C61.2968 305.289 61.3661 306.404 61.9273 307.11C62.7885 308.193 61.9889 308.718 61.3842 308.884C60.8066 309.042 59.6796 308.759 59.4479 308.324C58.8133 307.131 58.3834 305.783 58.1232 304.448C57.4641 301.066 56.665 297.676 56.4332 294.254C56.1194 289.625 56.337 284.962 56.2283 280.315C56.0967 274.683 56.9264 269.153 57.7002 263.601C58.9773 254.437 60.8033 245.401 63.6993 236.606C64.0489 235.544 64.8339 234.519 65.6696 233.75C66.6905 232.811 68.2632 233.669 68.4882 235.087C68.7544 236.764 67.9901 238.047 67.0686 239.315C64.2943 243.132 62.9073 247.485 62.1745 252.084C61.9256 253.646 61.6798 255.208 61.4327 256.956Z" fill="#E7EAEE"/>
<path fill-rule="evenodd" clip-rule="evenodd" d="M80.14 296.919C80.0093 298.07 82.0803 299.45 79.7714 299.885C79.147 300.002 77.7808 298.755 77.4936 297.909C76.6235 295.347 75.7811 292.701 75.5473 290.039C75.2243 286.362 75.4663 282.641 75.4663 278.939C75.4663 278.509 75.4663 278.08 75.4663 277.65C75.4663 271.822 75.4928 265.993 75.4484 260.164C75.4367 258.619 75.0752 257.072 75.1203 255.532C75.1535 254.399 75.3885 253.185 75.9098 252.181C76.2823 251.464 77.2447 250.67 78.0077 250.608C78.532 250.565 79.5838 251.669 79.6693 252.344C79.893 254.11 79.803 255.927 79.6709 257.713C79.5683 259.1 79.0814 260.463 78.9977 261.849C78.7887 265.312 78.6974 268.782 78.5857 272.25C78.4411 276.739 78.032 281.243 78.2829 285.713C78.4903 289.408 79.4909 293.062 80.14 296.919Z" fill="#E7EAEE"/>
<path fill-rule="evenodd" clip-rule="evenodd" d="M97.8114 289.44C94.303 284.015 91.688 278.287 90.0516 272.137C89.7216 270.897 90.0084 269.325 90.4735 268.09C90.6969 267.496 92.2487 266.83 92.7511 267.095C93.4326 267.453 93.9752 268.641 94.0692 269.529C94.4324 272.96 94.6661 276.356 95.7975 279.693C97.1723 283.749 99.5302 287.135 101.814 290.612C102.289 291.336 103.711 292.051 102.708 292.969C101.709 293.884 100.694 292.823 99.9402 291.983C99.2318 291.193 98.5788 290.351 97.8114 289.44Z" fill="#E7EAEE"/>
<path fill-rule="evenodd" clip-rule="evenodd" d="M113.914 277.817C111.803 275.764 109.691 273.893 107.802 271.806C106.819 270.721 107.003 269.342 108.184 268.306C109.362 267.274 110.099 268.237 110.777 269.023C113.344 271.996 115.875 275.003 118.408 278.007C118.552 278.178 118.704 278.606 118.668 278.631C118.254 278.919 117.718 279.447 117.379 279.343C116.218 278.988 115.123 278.406 113.914 277.817Z" fill="#E7EAEE"/>
<path fill-rule="evenodd" clip-rule="evenodd" d="M225.072 527.41C229.843 528.604 234.449 529.734 238.994 531.052C239.828 531.294 240.421 532.301 241.125 532.955C240.137 533.018 239.087 533.321 238.172 533.102C233.451 531.972 228.722 530.837 224.077 529.452C219.519 528.092 215.059 526.432 210.56 524.896C210.345 524.823 210.167 524.657 209.961 524.554C208.859 524.003 207.685 523.444 208.553 521.965C209.354 520.602 210.599 520.635 211.832 521.332C213.64 522.354 215.304 523.643 217.187 524.5C219.674 525.631 222.312 526.454 225.072 527.41Z" fill="#E7EAEE"/>
<path fill-rule="evenodd" clip-rule="evenodd" d="M231.304 513.359C233.243 514.479 235.103 515.475 236.921 516.547C237.307 516.774 237.536 517.277 237.838 517.653C237.194 517.909 236.41 518.546 235.929 518.362C232.072 516.891 228.261 515.292 224.459 513.676C222.371 512.788 220.306 511.835 218.27 510.828C217.131 510.264 215.834 509.674 216.82 507.93C217.435 506.841 218.895 506.571 220.253 507.313C223.901 509.305 227.557 511.281 231.304 513.359Z" fill="#E7EAEE"/>
<path fill-rule="evenodd" clip-rule="evenodd" d="M220.582 492.685C220.506 490.007 222.223 488.876 224.451 490.198C228.241 492.446 231.933 494.861 235.636 497.254C236.739 497.967 237.782 498.793 238.765 499.668C239.133 499.995 239.25 500.606 239.481 501.088C238.84 501.076 238.11 501.262 237.571 501.019C234.402 499.587 231.265 498.078 228.14 496.551C225.636 495.327 223.163 494.039 220.582 492.685Z" fill="#E7EAEE"/>
<path fill-rule="evenodd" clip-rule="evenodd" d="M233.429 474.037C236.685 474.08 238.411 476.246 240.27 478.162C240.804 478.713 241.237 479.401 241.558 480.096C241.875 480.786 242.305 481.728 241.422 482.195C241.024 482.405 240.144 481.989 239.612 481.657C238.086 480.705 236.647 479.618 235.127 478.655C234.581 478.309 233.817 478.277 233.303 477.903C232.552 477.358 231.936 476.633 231.263 475.985C231.925 475.336 232.586 474.687 233.429 474.037Z" fill="#E7EAEE"/>
<path fill-rule="evenodd" clip-rule="evenodd" d="M243.84 421.15C246.526 426.724 248.679 432.473 249.397 438.673C249.783 441.998 250.223 445.32 250.487 448.655C250.726 451.683 250.91 454.731 250.842 457.764C250.761 461.393 250.37 465.014 250.147 468.641C249.992 471.163 249.967 473.694 249.753 476.21C249.452 479.75 248.971 483.274 248.679 486.813C248.458 489.493 248.31 492.188 248.316 494.876C248.323 497.934 248.543 500.993 248.658 504.051C248.789 507.542 248.494 511.11 249.127 514.506C250.073 519.588 251.37 524.652 253.055 529.539C255.531 536.723 259.816 542.968 264.542 548.847C267.462 552.478 270.831 555.702 275.575 556.954C275.637 556.97 275.69 557.541 275.568 557.648C273.818 559.179 271.64 558.556 269.794 558.309C265.667 557.758 261.585 556.784 257.53 555.792C247.228 553.273 236.94 550.693 226.67 548.049C221.666 546.761 216.717 545.26 211.734 543.89C211 543.688 210.055 543.354 209.479 543.636C206.574 545.06 204.329 543.495 202.194 542.047C197.513 538.875 194.858 534.267 193.481 528.853C191.582 521.384 193.109 514.255 195.865 507.347C197.682 502.792 199.85 498.368 202.026 493.967C204.235 489.501 207.008 485.373 210.369 481.682C211.505 480.435 212.885 479.414 214.119 478.253C215.811 476.659 215.9 474.474 216.039 472.392C216.201 469.98 215.835 467.51 216.182 465.135C217.358 457.066 220.918 449.822 224.662 442.73C226.529 439.193 228.9 435.833 231.533 432.823C233.486 430.59 236.055 428.782 239.08 427.925C240.007 427.662 240.269 427.45 239.578 426.293C238.577 424.618 237.169 422.672 238.939 420.43C241.057 418.31 242.586 418.548 243.84 421.15ZM246.655 437.976C246.583 438.048 246.461 438.11 246.445 438.193C246.309 438.902 246.292 439.651 246.05 440.319C244.979 443.27 244.152 446.364 242.67 449.099C239.699 454.585 235.906 459.525 231.426 463.899C227.519 467.712 223.557 471.467 219.683 475.313C217.475 477.505 215.203 479.678 213.3 482.125C210.249 486.05 207.043 489.96 204.707 494.309C201.994 499.362 199.96 504.813 197.996 510.223C196.763 513.622 195.926 517.224 195.409 520.807C194.854 524.657 195.596 528.498 197.338 532.007C198.621 534.594 200.429 536.739 203.389 537.671C206.93 538.786 210.407 540.104 213.939 541.247C221.777 543.784 229.589 546.419 237.497 548.72C243.418 550.443 249.456 551.774 255.473 553.148C258.88 553.927 262.345 554.453 265.793 555.045C266.065 555.092 266.402 554.765 266.709 554.612C266.554 554.393 266.421 554.157 266.243 553.96C264.984 552.564 263.581 551.275 262.476 549.768C259.435 545.617 256.102 541.604 253.641 537.121C249.274 529.165 246.346 520.635 245.69 511.46C245.488 508.635 245.203 505.816 244.956 502.623C244.956 499.081 244.813 495.531 245 491.998C245.16 488.97 245.705 485.962 246.065 482.943C246.325 480.762 246.412 478.548 246.84 476.401C247.658 472.298 247.273 470.642 243.783 468.301C242.16 467.213 240.122 466.164 240.043 463.886C240.01 462.922 240.782 461.778 241.511 461.032C241.731 460.807 243.288 461.435 243.795 462.039C244.944 463.409 245.812 465.013 246.817 466.506C246.979 466.747 247.257 466.909 247.482 467.107C247.628 466.858 247.879 466.62 247.902 466.36C248.058 464.623 248.273 462.881 248.262 461.142C248.249 458.907 248.027 456.674 247.923 454.44C247.784 451.444 247.685 448.446 247.544 445.451C247.444 443.318 247.324 441.186 247.158 439.057C247.129 438.686 246.829 438.336 246.655 437.976ZM239.032 430.345C235.063 431.714 232.332 434.628 230.185 437.999C225.898 444.727 222.486 451.921 220.257 459.59C219.219 463.163 218.777 466.918 220.167 470.588C220.249 470.803 220.82 471.072 220.861 471.029C226.175 465.413 231.514 459.818 236.734 454.115C242.062 448.295 244.074 441.352 243.079 433.571C242.627 430.041 242.378 429.951 239.032 430.345ZM524.388 360.876C526.058 361.056 527.966 361.919 529.156 363.094C532.163 366.062 534.828 369.379 537.623 372.562C539.337 374.514 541.053 376.464 542.74 378.44C546.294 382.603 549.822 386.79 553.379 390.951C554.484 392.243 555.666 393.469 556.776 394.758C557.094 395.127 557.28 395.61 557.527 396.042C557.177 395.755 556.799 395.497 556.481 395.179C548.076 386.763 539.704 378.314 531.262 369.936C528.497 367.193 525.356 364.871 521.564 363.789C517.568 362.65 513.496 362.262 509.308 362.949C507.199 363.295 504.984 362.938 502.822 363.024C498.01 363.216 493.203 363.534 488.39 363.71C485.571 363.814 482.741 363.65 479.923 363.78C476.908 363.919 473.902 364.26 470.893 364.519C468.125 364.756 465.356 364.98 462.591 365.25C460.401 365.464 458.22 365.765 456.03 365.981C453.246 366.256 450.451 366.421 447.675 366.751C445.321 367.03 442.99 367.492 440.645 367.844C438.037 368.235 435.421 368.576 432.813 368.969C428.798 369.574 424.786 370.198 420.779 370.856C420.63 370.88 420.384 371.46 420.469 371.582C421.211 372.651 421.974 373.712 422.812 374.707C426.996 379.675 431.236 384.596 435.396 389.584C440.113 395.239 444.68 401.023 449.477 406.608C452.844 410.527 456.163 414.57 460.916 416.986C461.068 417.063 461.203 417.173 461.346 417.268C461.173 417.297 460.98 417.391 460.828 417.346C457.926 416.495 454.897 416.145 452.778 413.4C448.864 408.332 444.65 403.5 440.625 398.517C435.645 392.353 430.91 385.977 424.993 380.639C424.511 380.204 424.008 379.753 423.436 379.468C422.168 378.836 421.003 378.624 420.015 380.123C418.047 383.107 415.9 385.973 413.934 388.959C412.623 390.951 413.049 391.927 415.42 393.54C421.663 397.788 428.445 400.812 435.7 402.873C438.721 403.731 441.717 404.82 443.864 407.363C444.017 407.543 444.18 407.714 444.337 407.89C444.082 407.865 443.809 407.891 443.575 407.808C433.804 404.353 424.022 400.93 414.284 397.383C412.684 396.8 411.211 395.769 409.813 394.758C408.922 394.113 408.964 393.145 409.546 392.108C411.547 388.544 413.461 384.93 415.389 381.325C415.52 381.08 415.577 380.515 415.532 380.499C415.04 380.331 414.498 380.086 414.014 380.159C411.993 380.467 409.956 380.758 407.981 381.273C403.524 382.437 399.098 383.722 394.67 384.993C394.411 385.067 394.241 385.455 394.03 385.697C395.151 386.572 396.271 387.447 397.484 388.414C402.177 392.499 406.78 396.485 411.375 400.482C413.836 402.623 416.281 404.782 418.734 406.933C418.835 407.021 418.939 407.105 419.042 407.191C418.81 407.229 418.559 407.346 418.35 407.293C415.371 406.54 412.451 405.782 410.013 403.634C404.192 398.503 398.229 393.534 392.357 388.462C391.149 387.419 389.977 386.297 388.983 385.054C387.736 383.495 388.02 382.42 389.989 381.66C391.542 381.061 393.24 380.786 394.898 380.521C399.842 379.73 404.795 378.992 409.752 378.282C411.929 377.97 414.125 377.787 416.309 377.515C416.699 377.467 417.071 377.272 417.452 377.145C417.263 376.838 417.118 376.489 416.878 376.23C414.966 374.165 413.035 372.116 411.109 370.063C410.94 369.882 410.76 369.711 410.585 369.536C410.859 369.47 411.129 369.382 411.407 369.341C416.482 368.592 421.556 367.838 426.633 367.108C429.967 366.628 433.3 366.132 436.644 365.738C440.066 365.336 443.499 365.01 446.934 364.726C450.005 364.473 453.089 364.366 456.16 364.11C458.127 363.946 460.076 363.559 462.044 363.4C464.504 363.201 466.977 363.169 469.44 363C472.517 362.79 475.587 362.48 478.664 362.275C481.25 362.102 483.845 362.055 486.432 361.88C488.518 361.739 490.594 361.432 492.681 361.306C494.72 361.183 496.767 361.196 498.811 361.148C504.102 361.024 509.392 360.873 514.684 360.786C517.921 360.732 521.187 360.531 524.388 360.876ZM216.625 348.387C218.037 348.534 219.48 348.343 220.902 348.427C224.368 348.632 227.829 348.951 231.296 349.145C234.523 349.326 237.766 349.289 240.984 349.562C244.279 349.841 246.252 351.217 246.04 355.166C245.85 358.728 245.785 362.296 245.658 365.861C245.54 369.179 245.411 372.496 245.296 375.813C245.279 376.304 245.297 376.797 245.328 377.288C245.356 377.713 245.426 378.135 245.477 378.558C245.355 378.558 245.14 378.595 245.125 378.554C244.95 378.096 244.725 377.635 244.669 377.157C244.477 375.483 244.351 373.802 244.19 372.124C243.95 369.621 243.708 367.119 243.455 364.617C243.328 363.352 243.182 362.088 243.033 360.825C242.941 360.04 242.852 359.254 242.712 358.477C242.653 358.146 242.471 357.837 242.344 357.518C242.085 357.666 241.773 357.762 241.574 357.969C239.142 360.496 237.479 363.443 236.841 366.951C236.771 367.335 236.539 367.689 236.382 368.057C236.253 367.732 236.146 367.394 235.99 367.082C233.149 361.397 228.674 357.62 222.563 356.329C219.77 355.739 216.755 356.241 213.841 356.223C212.374 356.214 212.131 357.057 212.259 358.31C212.536 361.035 212.745 363.768 213.006 366.496C213.36 370.208 213.741 373.917 214.102 377.628C214.355 380.232 214.561 382.842 214.858 385.441C214.941 386.172 215.274 386.873 215.482 387.59C215.58 387.926 215.654 388.268 215.739 388.608C215.367 388.349 214.761 388.16 214.661 387.819C214.158 386.098 213.789 384.337 213.369 382.592C212.882 380.565 212.391 378.539 211.902 376.326C211.413 372.874 210.739 369.623 210.478 366.339C210.109 361.696 209.399 357.002 210.433 352.38C211.019 349.763 214.005 348.114 216.625 348.387ZM206.674 357.508C207.438 357.778 208.014 358.592 208.672 359.169C208.218 359.696 207.84 360.33 207.294 360.729C206.099 361.601 204.674 362.195 203.601 363.188C201.053 365.548 202.258 370.239 204.903 371.478C206.123 372.049 207.342 372.631 208.52 373.284C208.946 373.52 209.253 373.978 209.614 374.334C209.175 374.346 208.735 374.357 208.295 374.369C205.472 374.442 203.355 373.138 201.773 370.867C199.39 367.447 200.655 364.103 203.461 361.427C203.725 361.175 203.965 360.896 204.235 360.651C204.583 360.335 204.95 360.041 205.31 359.737C204.611 359.648 203.841 359.322 203.228 359.512C200.937 360.223 199.637 362.137 198.942 364.231C196.553 371.423 202.199 377.249 208.605 376.499C209.281 376.42 210.012 376.817 210.717 376.993C210.548 377.1 210.391 377.247 210.206 377.307C204.843 379.056 200.274 377.074 197.683 371.893C197.504 371.535 197.26 371.212 197.046 370.688C195.807 364.335 198.454 359.597 204.262 357.703C205.024 357.455 205.973 357.26 206.674 357.508ZM213.205 350.297C212.068 350.558 211.669 351.786 212.271 352.876C213.094 354.368 214.364 354.424 215.895 354.273C218.31 354.034 220.771 353.847 223.178 354.053C226.23 354.313 229.233 355.147 232.285 355.435C234.827 355.675 237.408 355.484 240.155 355.298C241.229 355.236 242.301 355.156 243.376 355.117C244.667 355.07 245.405 354.036 244.709 352.93C244.282 352.251 243.402 351.545 242.653 351.451C239.515 351.059 236.354 350.829 233.195 350.668C230.961 350.554 228.713 350.736 226.48 350.625C223.098 350.457 219.725 350.104 216.343 349.929C215.304 349.876 214.228 350.062 213.205 350.297ZM380.585 336.864C384.321 336.938 388.046 337.542 391.775 337.929C392.053 337.958 392.353 338.045 392.585 338.197C393.072 338.514 393.52 338.893 393.984 339.247C393.392 339.305 392.8 339.379 392.207 339.42C388.488 339.675 384.77 339.945 381.048 340.15C380.43 340.184 379.788 339.786 379.17 339.819C375.325 340.026 371.485 340.33 367.64 340.523C366.775 340.566 365.887 340.153 365.022 340.198C361.3 340.389 357.584 340.698 353.862 340.9C353.182 340.937 352.479 340.535 351.799 340.571C347.954 340.773 344.114 341.078 340.269 341.274C339.465 341.315 338.639 340.905 337.836 340.947C334.114 341.142 330.398 341.451 326.676 341.65C325.934 341.689 325.17 341.283 324.428 341.322C320.583 341.521 316.743 341.823 312.898 342.026C312.217 342.062 311.515 341.66 310.835 341.696C306.99 341.899 303.15 342.196 299.305 342.402C298.686 342.435 298.045 342.038 297.426 342.071C293.582 342.277 289.742 342.581 285.897 342.774C285.031 342.818 284.144 342.404 283.279 342.449C279.557 342.64 275.84 342.949 272.119 343.151C271.439 343.188 270.736 342.786 270.055 342.822C266.21 343.025 262.371 343.326 258.526 343.526C257.784 343.565 257.019 343.159 256.277 343.198C252.494 343.397 248.716 343.702 244.932 343.901C244.191 343.94 243.426 343.535 242.684 343.573C238.839 343.773 234.999 344.077 231.154 344.276C230.413 344.315 229.648 343.909 228.906 343.948C225.184 344.147 221.468 344.45 217.746 344.652C217.066 344.689 216.363 344.287 215.683 344.323C211.838 344.526 207.998 344.82 204.153 345.029C203.596 345.059 203.016 344.664 202.46 344.698C199.289 344.892 196.124 345.189 192.953 345.387C190.795 345.522 188.623 345.464 186.47 345.65C183.395 345.917 180.313 346.211 177.269 346.716C174.889 347.111 172.582 347.97 170.199 348.347C169.528 348.453 168.539 347.726 168.035 347.1C167.821 346.835 168.302 345.617 168.78 345.224C170.74 343.612 173.098 343.338 175.724 343.55C177.358 343.424 178.808 343.307 180.257 343.173C182.888 342.928 185.514 342.597 188.151 342.443C191.629 342.24 195.117 342.057 198.599 342.075C204.446 342.104 210.292 342.381 216.139 342.397C220.484 342.409 224.831 342.181 229.177 342.046C232.845 341.932 236.513 341.796 240.181 341.674C244.034 341.546 247.887 341.426 251.74 341.298C255.409 341.176 259.079 341.087 262.744 340.913C267.103 340.706 271.457 340.392 275.816 340.197C276.744 340.155 277.69 340.56 278.619 340.525C284.149 340.321 289.675 340.041 295.204 339.803C296.209 339.76 297.222 339.855 298.224 339.787C301.514 339.565 304.799 339.265 308.09 339.072C308.83 339.028 309.597 339.44 310.338 339.397C313.69 339.204 317.036 338.896 320.389 338.695C321.006 338.658 321.649 339.061 322.267 339.024C325.557 338.823 328.842 338.514 332.133 338.321C332.873 338.278 333.64 338.69 334.38 338.647C337.733 338.453 341.079 338.14 344.431 337.946C345.172 337.903 345.939 338.315 346.679 338.271C349.909 338.079 353.131 337.76 356.36 337.572C357.162 337.525 357.991 337.942 358.793 337.895C362.022 337.707 365.245 337.397 368.474 337.193C369.03 337.158 369.611 337.557 370.167 337.524C373.642 337.318 377.119 336.795 380.585 336.864ZM380.522 152.97C388.666 153.723 396.338 156.333 403.401 160.364C407.552 162.734 411.412 165.664 415.192 168.609C421.056 173.179 425.663 178.904 429.64 185.146C432.606 189.802 435.2 194.664 436.74 199.958C438.14 204.772 439.392 209.665 440.174 214.606C440.738 218.176 440.404 221.883 440.509 225.528C440.617 229.253 440.226 232.926 439.829 236.632C438.861 245.677 437.164 254.537 434.623 263.277C433.52 267.07 434.316 270.994 435.039 274.834C435.672 278.198 436.839 281.341 438.63 284.265C438.846 284.617 438.828 285.111 438.919 285.539C438.46 285.509 437.977 285.562 437.547 285.437C434.441 284.529 433.435 281.997 432.694 279.225C432.163 277.235 431.682 275.205 430.871 273.324C429.943 271.174 429.583 271.378 427.547 272.392C423.355 274.479 419.093 276.461 414.742 278.192C408.848 280.536 402.649 281.751 396.379 282.734C392.976 283.267 389.538 284.304 386.975 286.788C385.784 287.943 384.86 289.583 384.352 291.173C383.717 293.164 383.572 295.262 384.755 297.323C385.456 298.545 386.194 298.751 387.361 298.43C393.025 296.873 398.648 295.143 404.366 293.815C408.757 292.795 413.284 292.367 417.719 291.516C422.322 290.633 426.958 290.417 431.62 290.438C431.971 290.439 432.321 290.532 432.672 290.582C432.354 290.655 432.038 290.735 431.719 290.8C427.385 291.687 423.047 292.557 418.716 293.461C414.792 294.281 410.878 295.151 406.954 295.973C402.568 296.892 398.167 297.74 393.791 298.704C391.656 299.174 389.521 299.717 387.463 300.443C384.59 301.456 383.688 303.237 383.53 306.494C383.352 310.16 383.985 313.591 384.867 316.993C386.45 323.1 389.164 328.669 393.552 333.379C397.24 337.337 401.398 340.543 406.685 341.909C409.537 342.645 412.517 343.109 415.458 343.221C419.124 343.36 422.688 342.674 426.165 341.212C430.522 339.381 433.888 336.503 436.384 332.651C439.127 328.421 440.932 323.742 441.583 318.731C442.123 314.571 442.686 310.37 442.654 306.192C442.607 300.167 441.359 294.288 439.028 288.679C438.883 288.33 438.318 287.839 439.429 287.806C442.368 287.722 445.284 290.399 445.323 293.453C445.358 296.247 445.452 299.047 445.304 301.833C445.036 306.882 450.429 313.481 454.873 314.62C455.845 314.869 455.933 314.525 455.695 314.022C452.985 308.29 454.648 302.686 456.257 297.148C459.365 286.455 463.624 276.179 467.889 265.903C472.06 255.854 476.065 245.737 480.114 235.638C483.549 227.073 486.929 218.485 490.362 209.919C493.667 201.67 497.008 193.435 500.337 185.196C500.443 184.932 500.618 184.695 500.723 184.431C500.92 183.929 501.09 183.417 501.271 182.909C500.754 183.259 500.113 183.51 499.737 183.973C495.289 189.46 491.148 195.221 486.388 200.421C481.301 205.979 475.777 211.167 470.183 216.23C466.186 219.847 461.761 222.994 457.518 226.34C457.121 226.653 456.663 226.889 456.233 227.161C456.274 226.66 456.365 226.158 456.348 225.66C456.218 221.836 459.77 221.492 461.906 219.822C465.122 217.307 468.466 214.944 471.575 212.305C477.369 207.389 481.98 201.389 486.677 195.479C487.947 193.881 489.307 192.354 490.719 190.702C494.837 186.231 498.712 181.702 502.933 177.52C506.635 173.852 510.748 170.645 515.945 169.136C518.262 168.463 522.474 170.008 524.032 172.45C525.658 174.999 526.306 177.793 526.298 180.832C526.281 187.139 524.996 193.25 523.663 199.358C522.208 206.023 520.797 212.7 519.177 219.326C518.227 223.212 517.109 227.084 515.709 230.83C512.379 239.742 508.999 248.642 505.317 257.413C503.222 262.404 500.632 267.207 497.997 271.947C496.537 274.576 494.379 276.579 490.908 276.421C489.486 276.356 488.572 278.011 488.376 280.03C488.091 282.966 487.85 285.928 487.244 288.807C486.017 294.636 483.403 299.935 480.269 304.956C477.901 308.75 475.269 312.38 472.824 316.128C471.132 318.724 468.89 320.818 465.819 320.98C463.895 321.082 461.894 319.863 459.942 319.194C459.625 319.085 459.345 318.79 459.113 318.524C458.156 317.429 457.42 315.812 456.227 315.349C455.111 314.915 453.487 316.007 452.144 315.872C449.847 315.641 447.927 314.451 446.523 312.532C446.249 312.158 445.938 311.288 445.639 312.719C444.83 316.6 443.806 320.442 442.713 324.256C440.721 331.207 437.033 337.184 431.398 341.734C427.905 344.554 423.879 346.422 419.164 346.681C414.382 346.943 410.094 345.647 405.815 343.746C399.758 341.055 394.436 337.386 389.463 333.033C382.329 326.789 376.92 319.307 373.208 310.72C371.131 305.917 369.912 300.728 368.506 295.659C367.089 290.55 365.306 285.65 362.375 281.171C359.718 277.111 357.781 272.673 357.046 267.868C356.801 266.266 357.346 264.484 357.783 262.852C358.653 259.603 359.132 256.324 358.398 253.035C358.032 251.396 357.029 249.908 356.448 248.304C354.117 241.87 351.665 235.471 349.6 228.951C348.176 224.456 347.19 219.808 346.243 215.181C345.637 212.219 345.448 209.17 345.088 206.158C344.826 203.961 344.505 201.766 344.363 199.561C344.159 196.392 344.202 193.205 343.945 190.042C343.612 185.961 344.217 181.92 345.222 178.086C346.204 174.335 348.121 170.779 349.959 167.311C352.089 163.293 355.005 159.844 358.949 157.402C362.472 155.22 366.232 153.6 370.411 153.293C373.775 153.047 377.189 152.662 380.522 152.97ZM353.715 251.428C353.481 251.814 353.34 252.368 352.998 252.558C350.995 253.665 348.992 254.789 346.903 255.713C343.358 257.281 339.749 258.704 335.982 260.188C330.095 262.81 324.275 265.206 318.724 268.116C313.193 271.014 308.052 274.57 303.252 278.639C296.225 284.596 290.556 291.586 286.893 300.026C285.397 303.474 284.371 307.252 283.872 310.979C283.211 315.911 283.291 320.94 283.024 325.926C282.801 330.111 282.553 334.295 282.28 338.477C282.177 340.054 280.95 338.884 280.306 339.17C280.255 339.193 279.72 338.558 279.752 338.267C280.062 335.485 280.619 332.721 280.764 329.933C280.945 326.42 280.779 322.889 280.813 319.366C280.879 312.616 282.166 306.134 284.974 299.957C287.589 294.204 291.117 289.108 295.303 284.393C301.622 277.275 309.187 271.828 317.435 267.239C325.236 262.898 333.323 259.191 341.695 256.084C345.327 254.737 348.863 253.131 352.452 251.666C352.841 251.507 353.292 251.504 353.715 251.428ZM452.753 333.129C455.96 333.58 459.153 334.14 462.356 334.62C464.311 334.913 466.269 335.28 468.235 335.366C471.117 335.493 474.009 335.351 476.894 335.415C479.009 335.462 481.122 335.642 483.233 335.79C484.73 335.894 486.222 336.13 487.718 336.154C491.18 336.209 494.644 336.209 498.106 336.164C506.218 336.058 514.329 335.831 522.44 335.843C524.513 335.846 526.585 336.558 528.658 336.94C528.778 336.962 528.954 336.888 529.021 336.952C529.495 337.404 529.948 337.88 530.407 338.348C529.807 338.394 529.207 338.479 528.607 338.481C524.505 338.493 520.402 338.523 516.3 338.47C514.681 338.449 513.065 338.158 511.445 338.114C505.498 337.953 499.551 337.832 493.604 337.722C491.481 337.682 489.357 337.715 487.047 337.715C484.388 337.715 481.914 337.762 479.441 337.704C475.658 337.617 471.877 337.396 468.093 337.345C463.311 337.28 458.526 337.42 453.746 337.289C451.508 337.228 449.272 336.793 447.053 336.419C445.812 336.21 445.523 335.06 445.935 334.125C446.219 333.481 447.169 332.803 447.852 332.768C449.477 332.685 451.129 332.9 452.753 333.129ZM357.824 255.683C357.692 255.756 357.521 255.798 357.435 255.907C354.734 259.319 351.73 262.541 349.425 266.202C346.328 271.121 343.77 276.387 342.24 282.049C341.412 285.11 340.815 288.233 340.095 291.324C339.624 293.35 338.554 295.024 336.803 296.147C334.477 297.639 332.013 298.92 329.722 300.46C324.016 304.292 320.402 309.718 318.295 316.156C317.117 319.757 316.374 323.444 317.056 327.302C317.47 329.647 317.643 332.035 317.902 334.406C317.943 334.783 317.865 335.173 317.842 335.558C317.342 335.513 316.601 335.657 316.386 335.386C315.798 334.643 315.162 333.766 315.028 332.87C314.628 330.196 314.469 327.487 314.191 324.794C314.132 324.233 313.964 323.683 313.846 323.127C313.347 323.682 312.776 324.187 312.361 324.799C309.591 328.88 306.864 332.99 304.088 337.068C303.885 337.366 303.41 337.479 303.061 337.679C302.971 337.056 302.603 336.288 302.84 335.835C303.719 334.154 304.68 332.488 305.823 330.977C308.496 327.44 311.528 324.151 313.957 320.461C315.559 318.029 316.426 315.099 317.512 312.348C318.624 309.533 320.38 307.229 322.65 305.268C325.513 302.796 328.363 300.307 331.311 297.733C333.315 295.61 335.459 293.747 337.08 291.506C339.218 288.552 339.979 284.951 340.844 281.445C342.675 274.027 345.934 267.303 350.745 261.348C351.943 259.864 353.079 258.307 354.446 256.993C355.188 256.279 356.351 255.995 357.338 255.547C357.455 255.494 357.66 255.633 357.824 255.683ZM89.9376 189.93C92.0087 190.465 92.3083 192.266 90.724 193.641C87.1266 196.763 85.4148 200.749 85.1512 205.377C85.0055 207.934 85.245 210.512 85.1031 213.069C84.6352 221.499 87.0968 229.258 90.7421 236.66C94.2272 243.737 99.3019 249.565 106.583 252.969C110.762 254.923 115.23 256.294 119.63 257.739C123.452 258.994 127.368 259.963 131.23 261.099C135.02 262.213 138.752 263.223 142.767 261.885C144.827 261.198 146.372 263.04 145.584 265.036C142.601 272.585 140.06 280.42 134.82 286.785C131.678 290.603 128.041 294.136 124.152 297.202C118.442 301.702 111.875 304.911 105.317 308.071C98.9199 311.154 92.667 314.536 86.2416 317.557C79.0032 320.96 71.6678 324.164 64.3276 327.347C58.4057 329.915 52.4275 332.357 46.4433 334.779C45.0124 335.358 43.4796 335.765 41.9547 336.017C40.4267 336.271 37.0699 333.875 36.4702 332.291C34.9484 328.272 33.914 324.14 33.4868 319.857C33.2268 317.25 32.8768 314.653 32.4745 312.051C32.3816 311.867 32.3816 311.682 32.4745 311.405C32.6292 307.84 32.6941 304.368 32.7372 300.895C32.7384 300.799 32.5054 300.701 32.3816 300.604V299.219C32.4435 299.127 32.5596 299.129 32.5596 299.127C32.6766 295.912 32.7761 292.697 32.9009 289.483C32.9412 288.445 33.0587 287.409 33.1228 286.372C33.6551 277.754 34.679 269.191 36.8844 260.836C38.6443 254.169 40.9681 247.684 43.7925 241.35C47.0143 234.125 50.9313 227.331 55.4444 220.871C57.7438 217.579 60.2553 214.408 62.9275 211.408C66.1426 207.798 69.4459 204.224 73.0491 201.01C77.1626 197.339 81.5832 193.995 86.0224 190.712C87.0108 189.981 88.7581 189.624 89.9376 189.93ZM84.5396 194.995C84.331 195.088 84.0952 195.146 83.9179 195.281C78.3364 199.512 72.7886 203.785 68.1668 209.093C65.2957 212.391 62.3607 215.643 59.6499 219.068C53.0618 227.393 47.9635 236.567 44.0817 246.692C43.9499 247.069 43.797 247.44 43.6896 247.824C42.0216 253.783 40.2566 259.719 38.743 265.716C38.0715 268.377 37.8788 271.161 37.5265 273.897C37.1388 276.907 36.707 279.918 36.5018 282.943C36.3327 285.435 36.5605 287.952 36.4419 290.45C36.2945 293.552 35.8655 296.643 35.7615 299.746C35.6912 301.842 36.0296 303.949 36.0812 306.053C36.1435 308.596 36.0484 311.142 36.1107 313.684C36.1618 315.769 36.2119 317.869 36.501 319.93C36.8551 322.453 37.4858 324.936 37.9464 327.446C38.6115 331.07 40.1004 332.473 43.6488 332.73C46.1357 332.91 48.0258 331.44 48.374 329.11C48.4163 328.827 48.8621 328.334 48.9201 328.362C52.0553 329.833 54.7767 328.351 57.5244 327.185C63.3628 324.708 69.2273 322.286 75.0073 319.679C83.6071 315.801 92.1715 311.842 100.694 307.797C104.681 305.905 108.596 303.843 112.435 301.666C119.925 297.418 126.773 292.38 132.318 285.681C136.617 280.489 139.273 274.586 140.813 268.128C141.105 266.901 140.675 265.836 139.208 265.521C135.233 264.668 131.267 263.77 127.285 262.946C119.193 261.27 111.371 258.936 104.098 254.851C94.7602 249.606 88.7783 241.684 85.186 231.898C83.4818 227.256 82.113 222.445 82.1484 217.39C82.1749 213.594 81.8407 209.765 82.2452 206.013C82.619 202.544 83.7652 199.159 84.5574 195.734C84.6112 195.501 84.5482 195.242 84.5396 194.995ZM240.249 249.85C242.462 251.37 244.651 252.928 246.796 254.544C247.377 254.982 247.423 255.417 247.686 254.272C248.098 252.481 250.646 251.981 252.173 253.253C255.672 256.172 257.438 260.096 258.718 264.363C259.829 268.065 259.389 271.827 259.497 275.567C259.566 277.967 261.815 279.777 264.174 279.874C265.919 279.945 267.754 280.711 269.323 281.577C273.121 283.671 275.562 286.976 276.762 291.139C278.054 295.622 276.852 299.614 274.253 303.339C271.89 306.726 269.738 310.275 266.308 312.759C264.411 314.134 262.225 315.274 260.74 317.009C259.145 318.873 257.313 320.088 255.141 320.927C249.791 322.991 243.944 320.314 241.324 315.852C238.964 311.832 233.28 312.716 231.077 315.974C230.116 317.395 229.852 319.271 229.134 320.88C228.694 321.866 229.121 321.716 229.781 321.618C233.051 321.132 236.324 320.667 239.598 320.205C239.766 320.181 239.946 320.247 240.121 320.27C239.991 320.37 239.871 320.486 239.73 320.566C236.484 322.4 232.971 323.436 229.297 323.874C226.513 324.206 223.667 324.737 220.923 324.456C218.761 324.235 216.56 323.161 214.65 322.011C212.397 320.655 211.721 318.352 211.764 315.66C211.849 310.434 213.854 306.024 217.163 302.202C218.117 301.101 219.8 300.638 221.14 299.866C221.648 299.573 222.39 299.536 221.49 298.59C217.559 294.462 214.068 289.99 211.679 284.755C211.302 283.929 210.913 283.076 210.748 282.195C210.647 281.654 210.798 280.881 211.149 280.507C211.37 280.272 212.248 280.441 212.693 280.684C213.359 281.048 213.887 281.657 214.502 282.124C215.55 282.921 216.132 282.582 215.848 281.339C215.041 277.807 215.783 274.455 217.025 271.215C217.695 269.468 218.785 267.873 219.796 266.281C219.893 266.129 220.866 266.358 221.289 266.632C222.074 267.14 222.755 267.811 223.478 268.414C223.527 267.449 223.542 266.481 223.637 265.52C223.693 264.949 223.834 264.378 224.007 263.829C224.874 261.078 225.339 260.939 227.635 262.664C227.943 262.895 228.311 263.046 228.652 263.234L228.751 262.534C228.766 262.417 228.78 262.3 228.789 262.183C229.043 259.16 228.438 256.418 226.228 254.173C226.202 254.147 226.681 253.358 226.957 253.336C230.14 253.086 233.324 252.954 236.236 254.655C236.831 255.002 237.425 255.352 238.111 255.794C238.388 255.542 238.698 255.211 238.736 254.852C238.908 253.224 238.986 251.586 239.174 249.961C239.184 249.873 240.011 249.686 240.249 249.85ZM219.041 302.488C218.969 302.623 218.924 302.782 218.822 302.888C215.201 306.711 213.512 311.253 213.646 316.52C213.719 319.38 215.243 321.486 218.104 322.008C219.922 322.339 221.808 322.325 223.665 322.375C223.89 322.381 224.256 321.857 224.342 321.524C224.89 319.396 224.851 317.025 227.131 315.394C227.767 315.147 228.404 314.903 229.039 314.654C229.328 314.54 229.84 314.437 229.852 314.294C229.879 313.991 229.733 313.52 229.5 313.376C228.876 312.99 228.193 312.565 227.491 312.467C224.251 312.017 221.952 310.309 220.634 307.37C220.007 305.973 219.666 304.446 219.195 302.978C219.143 302.815 219.092 302.651 219.041 302.488ZM227.684 316.687C227.438 317.619 227.157 318.544 226.981 319.488C226.952 319.646 227.449 320.101 227.593 320.057C228.181 319.879 228.37 317.053 227.684 316.687ZM241.116 251.861C241.314 252.54 241.594 253.207 241.694 253.9C241.92 255.472 241.784 256.975 240.24 257.901C239.006 258.641 238.082 257.752 237.242 257.102C235.336 255.628 233.084 255.435 230.846 255.155C229.625 255.002 229.569 255.504 229.968 256.556C230.556 258.103 231.287 259.746 231.241 261.327C231.212 262.319 229.944 263.342 229.098 264.223C228.31 265.045 227.554 264.656 226.931 263.845C226.835 263.721 226.527 263.76 226.317 263.724C226.331 264.058 226.288 264.406 226.37 264.722C226.859 266.601 226.158 268.417 224.188 269.496C222.824 270.244 221.863 269.104 221.034 268.221C220.411 267.556 220.354 267.96 220.089 268.465C217.788 272.87 217.524 277.476 218.746 282.21C219.049 283.387 218.508 283.973 217.537 283.928C216.405 283.876 215.295 283.431 214.166 283.204C213.644 283.099 213.098 283.107 212.563 283.064C212.709 283.58 212.776 284.134 213.011 284.604C214.964 288.489 217.476 292.004 220.734 294.86C222.657 296.545 223.837 298.023 223.779 300.93C223.704 304.727 225.725 307.831 229.229 309.896C232.021 311.54 234.989 311.197 237.934 311.298C239.441 311.35 240.537 311.87 241.433 313.065L241.79 313.542C243.629 316.009 245.447 318.466 248.739 319.329C252.451 320.301 255.843 319.912 258.705 317.297C259.301 316.752 259.307 315.45 259.333 314.49C259.338 314.315 258.13 314.007 257.463 313.933C254.797 313.635 252.118 314.311 249.426 313.583C245.624 312.554 242.131 311.039 239.25 308.296C238.707 307.779 238.25 307.171 237.753 306.605C238.629 306.812 239.506 307.011 240.379 307.229C240.598 307.284 240.847 307.348 241.004 307.493C245.078 311.247 249.858 312.882 255.384 312.446C260.991 312.004 263.879 309.06 264.169 304.139C264.467 299.056 263.486 294.134 261.147 289.526C260.809 288.86 260.812 287.935 260.894 287.155C261.211 284.124 261.972 281.064 258.718 278.909C258.172 278.546 258.02 277.334 257.983 276.502C257.872 274.032 257.094 273.11 254.683 272.886C253.213 272.75 252.389 271.87 252.053 270.489C251.956 270.089 251.961 269.664 251.919 269.25C251.527 269.604 251.031 269.891 250.762 270.321C249.398 272.503 247.364 273.853 245.225 275.159C244.142 275.821 243.792 275.745 243.524 274.52C243.397 273.943 242.929 273.442 242.615 272.906C242.314 273.335 242.001 273.757 241.713 274.195C241.333 274.774 241.065 275.459 240.586 275.934C238.879 277.632 237.155 279.322 235.315 280.868C234.914 281.205 233.712 281.211 233.407 280.881C233.006 280.445 233.059 279.529 233.04 278.816C233.021 278.107 233.196 277.394 233.2 276.683C233.201 276.404 232.982 275.9 232.839 275.891C232.534 275.873 232.064 276.022 231.924 276.258L231.201 277.478C230.477 278.698 229.767 279.929 229.185 281.215C227.625 284.663 226.987 288.326 226.901 292.109C226.889 292.642 226.32 293.216 225.893 293.657C225.747 293.808 224.992 293.695 224.946 293.558C224.746 292.961 224.59 292.303 224.632 291.682C224.698 290.697 224.953 289.726 225.098 288.744C225.973 282.818 228.538 277.779 232.966 273.725C233.128 273.576 233.695 273.565 233.704 273.598C234.106 274.972 234.482 276.355 234.82 277.746C234.897 278.06 234.826 278.41 234.823 278.744C235.12 278.608 235.452 278.521 235.709 278.331C238.509 276.258 240.75 273.706 242.358 270.596C242.745 269.846 243.287 269.177 243.758 268.47L244.584 269.975C244.858 270.477 245.128 270.981 245.387 271.491C245.486 271.687 245.329 272.011 245.425 272.212C245.496 272.361 245.91 272.529 245.957 272.481C247.387 271.003 248.762 269.471 250.214 268.016C250.771 267.458 251.82 266.54 252.086 266.702C252.949 267.231 253.584 268.16 254.237 268.99C254.387 269.179 254.146 269.659 254.284 269.88C254.537 270.284 255.077 270.953 255.255 270.884C256.153 270.536 257.055 270.082 257.78 269.46C258.069 269.211 257.907 268.435 257.766 267.714C257.021 263.001 255.16 258.835 251.764 255.421C251.55 255.206 251.33 254.998 251.112 254.787C251.054 255.071 250.996 255.355 250.938 255.638C250.614 257.203 248.93 258.145 247.715 257.198C246.183 256.003 244.967 254.409 243.502 253.114C242.848 252.536 241.919 252.269 241.116 251.861ZM370.859 290.461C370.728 290.592 370.506 290.708 370.482 290.856C370.396 291.385 370.267 291.943 370.35 292.459C370.807 295.28 371.381 298.083 371.804 300.908C372.542 305.837 373.776 310.622 376.322 314.936C377.225 316.466 378.691 317.668 379.921 319.001C380.06 319.152 380.333 319.181 380.545 319.267C380.535 319.136 380.54 319.003 380.515 318.875C380.217 317.335 380.1 315.73 379.577 314.269C378.33 310.785 376.891 307.369 375.344 303.741C374.416 301.228 373.435 298.733 372.578 296.196C371.988 294.45 371.572 292.645 371.07 290.869C371.03 290.725 370.931 290.597 370.859 290.461ZM470.182 282.183C470.175 282.351 469.822 282.491 469.659 282.67C469.214 283.158 468.695 283.607 468.363 284.164C464.707 290.299 462.786 297.055 461.299 303.96C460.904 305.792 460.553 307.634 460.181 309.841C460.057 310.898 459.808 311.959 459.843 313.011C459.883 314.234 459.871 315.603 460.409 316.637C461.918 319.533 465.966 319.45 468.449 317.925C470.747 316.514 471.852 314.238 473.097 312.09C475.218 308.429 476.989 304.561 479.194 300.953C482.191 296.046 485.148 291.158 486.499 285.492C486.906 283.787 486.037 282.625 484.218 282.677C479.936 282.8 475.774 281.957 471.606 281.175C470.205 280.912 470.237 280.839 470.182 282.183ZM263.067 281.415C262.327 284.602 262.801 287.644 263.718 290.651C265.054 295.033 266.512 299.381 266.064 304.063C265.751 307.339 264.28 309.927 261.465 311.735C261.033 312.013 260.838 312.663 260.534 313.141C261.104 313.26 261.678 313.48 262.243 313.459C262.591 313.445 262.967 313.108 263.258 312.837C265.34 310.902 267.673 309.157 269.397 306.938C271.129 304.708 272.249 301.999 273.822 299.316C274.182 297.599 274.608 295.894 274.89 294.165C275.522 290.285 273.58 286.552 270.04 285.234C267.722 284.371 265.184 284.05 264.2 281.235C264.039 280.776 263.439 279.81 263.067 281.415ZM150.953 197.263C155.477 197.801 160.033 198.639 164.373 199.998C169.025 201.455 173.1 204.226 176.399 207.878C180.896 212.855 183.829 218.64 185.133 225.284C185.685 228.098 185.859 230.891 185.805 233.718C185.772 235.513 185.587 237.306 185.451 239.098C185.161 242.931 186.123 246.577 187.074 250.229C188.048 253.969 187.693 257.719 187.35 261.517C186.843 267.13 184.732 272.208 182.441 277.201C180.966 280.416 178.97 283.4 177.109 286.427C175.535 288.987 173.82 291.461 172.075 294.066C169.721 297.771 167.423 301.362 165.215 305.006C164.241 306.613 163.448 308.329 162.569 309.993C162.462 310.196 162.354 310.412 162.197 310.574C161.651 311.132 161.083 311.669 160.524 312.214C160.471 311.418 160.156 310.527 160.406 309.841C162.408 304.355 165.493 299.459 168.839 294.707C172.889 288.953 177.193 283.354 180.065 276.858C181.952 272.591 183.441 268.2 183.966 263.54C184.271 260.84 184.612 258.131 184.675 255.421C184.736 252.729 184.473 250.03 184.335 247.335C184.328 247.201 184.096 246.956 184.083 246.963C183.781 247.135 183.435 247.283 183.218 247.539C182.065 248.896 180.966 250.298 179.812 251.655C176.88 255.101 173.31 257.42 168.804 258.424C164.354 259.415 160.612 258.119 157.45 255.219C153.443 251.543 153.503 247.047 156.26 242.792C158.782 238.899 162.437 236.835 167.138 236.174C171.733 235.527 175.905 236.804 180.078 238.166C181.619 238.669 182.569 239.209 182.642 237.028C182.725 234.559 182.572 232.057 182.925 229.627C183.379 226.504 182.29 223.777 181.41 220.941C179.667 215.331 176.3 210.939 171.795 207.224C168.339 204.374 164.462 202.415 160.234 201.266C155.87 200.081 151.44 199.538 146.797 200.009C139.275 200.772 132.739 203.651 126.8 208.054C122.593 211.174 119.319 215.213 116.417 219.559C115.985 220.206 115.271 220.666 114.69 221.215C113.964 221.901 112.995 222.098 112.477 221.296C112.083 220.687 111.94 219.388 112.325 218.892L113.22 217.738C115.014 215.426 116.844 213.117 118.975 211.15C121.586 208.741 124.578 206.713 127.542 204.724C132.497 201.401 137.925 199.165 143.86 198.257C146.23 197.894 148.661 196.991 150.953 197.263ZM222.234 305.143C222.205 305.378 222.129 305.618 222.156 305.845C222.406 307.965 223.795 309.369 225.366 310.543C225.892 310.936 226.813 310.799 227.553 310.905C227.163 310.303 226.798 309.683 226.373 309.107C226.12 308.764 225.774 308.491 225.47 307.817C224.565 307.034 223.663 306.247 222.752 305.471C222.598 305.34 222.408 305.252 222.234 305.143ZM514.049 173.77C512.067 175.419 510.097 177.088 508.216 178.849C505.13 181.737 503.176 185.432 501.56 189.218C498.162 197.179 495.021 205.249 491.806 213.286C487.067 225.132 482.355 236.988 477.631 249.209C477.384 249.6 477.066 249.964 476.899 250.387C473.895 258.02 470.92 265.664 467.917 273.296C465.602 279.179 463.145 285.01 460.956 290.938C458.932 296.421 457.622 302.111 456.858 307.911C456.785 308.47 456.975 309.063 457.042 309.64C457.098 309.149 457.078 308.632 457.238 308.177C457.345 307.871 457.836 307.696 457.934 307.391C459.817 301.573 461.545 295.703 463.565 289.933C464.955 285.962 466.702 282.112 468.366 278.24C469.144 276.432 469.838 276.257 471.584 277.122C472.764 277.706 473.965 278.253 475.118 278.885C476.942 279.885 478.873 280.264 480.933 280.081C482.402 279.951 484.239 278.256 484.274 276.678C484.309 275.136 483.624 273.899 481.836 273.736C480.718 273.634 479.574 273.689 478.48 273.476C477.673 273.319 476.928 272.844 476.156 272.51C476.659 272.125 477.127 271.675 477.679 271.381C478.021 271.199 478.491 271.254 478.903 271.207C481.669 270.887 484.014 272.21 486.444 273.156C490.82 274.861 493.287 274.537 495.511 271.617C496.706 270.048 497.507 268.146 498.297 266.314C501.882 257.999 505.688 249.761 508.864 241.291C512.15 232.528 515.212 223.638 517.618 214.605C520.206 204.887 523.043 195.155 523.544 184.998C523.682 182.201 523.441 179.494 522.641 176.732C521.353 172.286 517.157 171.184 514.049 173.77ZM361.896 262.785C361.738 263.089 361.536 263.379 361.428 263.7C360.038 267.819 360.255 271.943 362.179 275.757C364.194 279.75 366.661 283.517 368.953 287.37C369.05 287.533 369.374 287.563 369.593 287.655C369.663 287.358 369.859 287.024 369.785 286.769C369.128 284.52 368.382 282.297 367.767 280.037C367.641 279.571 367.779 278.793 368.104 278.503C368.586 278.074 369.394 277.659 369.976 277.756C371.656 278.037 373.052 280.034 373.218 282.028C373.492 285.321 373.588 288.641 374.086 291.901C374.887 297.143 376.954 301.997 379.251 306.749C379.375 307.006 379.618 307.206 379.805 307.433C379.989 307.139 380.259 306.868 380.341 306.548C380.629 305.429 380.682 304.222 381.13 303.178C382.708 299.501 382.683 295.967 380.751 292.406C379.694 290.457 378.871 288.383 377.758 286.18C376.972 283.918 376.599 281.381 375.304 279.46C373.308 276.497 370.618 274.006 368.338 271.221C366.326 268.762 364.474 266.174 362.551 263.643L361.896 262.785ZM256.511 297.879C256.935 298.603 257.261 299.273 257.798 299.666C259.814 301.139 259.588 305.107 257.604 306.33C257.159 306.604 256.393 306.373 255.775 306.375C255.775 305.873 255.621 305.31 255.8 304.88C257.056 301.858 255.752 299.382 252.461 298.589C251.945 298.464 251.477 298.151 250.987 297.925C251.437 297.648 251.878 297.355 252.341 297.099C252.834 296.825 253.347 296.583 253.853 296.331C255.757 295.381 256.061 295.538 256.511 297.879ZM259.844 282.076C260.143 283.796 260.051 285.654 259.742 287.383C259.501 288.733 255.962 289.475 254.037 289.225C252.004 288.961 250.753 287.747 249.489 286.453C248.389 285.326 247.134 284.44 245.581 285.067C244.004 285.703 243.944 287.27 244.018 288.937C243.576 291.869 242.724 294.241 240.164 295.977C236.774 298.275 232.87 296.591 231.346 293.806C231.174 293.491 230.869 293.248 230.626 292.972C230.441 293.242 230.199 293.49 230.082 293.787C229.167 296.099 228.173 298.388 227.415 300.752C226.943 302.224 227.616 302.894 229.121 302.879C230.128 302.869 231.134 302.86 232.14 302.888C232.403 302.895 232.663 303.041 232.924 303.123C232.779 303.368 232.69 303.749 232.479 303.836C231.529 304.227 230.404 305.012 229.601 304.779C227.491 304.168 225.642 303.012 225.522 300.398C225.326 296.14 227.612 292.927 230.043 289.794C232.812 286.227 236.899 284.968 241.02 283.8C246.196 282.334 251.37 280.862 256.547 279.402C257.626 279.097 259.549 280.377 259.844 282.076ZM240.05 285.388C238.204 286.121 236.378 286.927 234.614 287.836C231.568 289.404 231.248 292.177 233.784 294.375C236.422 296.661 239.808 295.886 240.804 292.619C241.362 290.787 241.482 288.823 241.799 286.552C241.885 285.177 241.018 285.003 240.05 285.388ZM247.7 286.75C247.862 286.814 248.019 286.898 248.186 286.941C250.692 287.58 252.641 291.659 251.45 293.868C251.215 294.305 250.733 294.602 250.365 294.964C250.273 294.604 250.171 294.246 250.092 293.884C249.856 292.809 249.63 291.733 249.314 290.569C248.742 289.396 248.253 288.313 247.778 287.224C247.716 287.082 247.724 286.909 247.7 286.75ZM255.486 280.535C253.409 281.261 251.411 282.211 249.01 283.067C248.948 283.345 248.751 283.685 248.846 283.893C250.043 286.519 254.54 288.37 257.234 287.381C258.823 286.798 259.703 284.783 259.179 282.927C258.816 281.64 256.684 280.117 255.486 280.535ZM446.406 216.946C449.985 217.295 452.841 218.858 455.019 221.938C456.216 223.63 455.306 225.033 455.025 226.454C454.01 231.578 452.785 236.659 451.622 241.752C450.664 245.946 449.689 250.135 448.709 254.323C447.402 259.904 446.09 265.484 444.768 271.062C443.817 275.075 442.854 279.085 441.873 283.09C441.77 283.509 441.51 283.888 441.322 284.285C441.149 283.868 440.796 283.434 440.831 283.036C441.102 279.874 441.376 276.709 441.788 273.564C442.222 270.254 442.751 266.954 443.342 263.67C444.048 259.75 444.789 255.833 445.647 251.946C447.59 243.143 450.098 234.508 452.967 225.969C454.107 222.576 450.869 220.337 448.249 220.395C446.575 220.433 445.131 220.815 443.593 221.191C443.339 221.253 442.939 220.69 442.606 220.232C442.606 219.925 442.567 219.785 442.612 219.682C442.968 218.872 441.675 217.387 443.581 217.209C444.525 217.121 445.482 216.856 446.406 216.946ZM262.836 266.214C265.082 266.248 267.326 266.547 269.569 266.526C272.778 266.495 275.84 267.178 278.706 268.441C281.226 269.551 283.554 271.087 286.06 272.527C288.982 275.13 291.207 278.042 292.063 281.771C292.175 282.26 291.636 282.896 291.398 283.464C291.015 283.122 290.391 282.841 290.285 282.429C288.247 274.534 282.512 270.692 275.022 268.764C270.931 267.711 266.791 267.971 262.638 268.341C262.1 268.389 260.895 269.101 260.85 267.683C260.808 266.381 261.91 266.2 262.836 266.214ZM369.591 155.582C362.297 156.617 356.901 160.804 352.812 166.815C348.356 173.365 346.865 180.81 346.669 188.461C346.53 193.923 347.183 199.422 347.727 204.88C348.133 208.958 348.71 213.046 349.606 217.042C350.735 222.078 352.291 227.019 353.619 232.012C355.841 240.361 358.638 248.514 362.184 256.392C365.963 264.789 370.932 272.397 377.914 278.549C380.168 280.535 382.781 281.97 385.819 282.272C389.604 282.648 393.28 281.935 396.899 280.827C404.642 278.458 412.465 276.331 420.13 273.737C427.129 271.368 431.489 266.289 433.043 259.078C434.209 253.67 435.192 248.214 436.007 242.743C436.701 238.088 437.264 233.389 437.46 228.692C437.61 225.1 437.14 221.477 436.867 217.874C436.659 215.127 436.326 212.39 436.048 209.28C435.146 203.814 433.509 198.582 431.353 193.467C428.078 185.695 423.566 178.857 417.466 172.956C410.816 166.524 402.868 162.432 394.225 159.618C389.348 158.029 384.299 156.861 379.247 155.94C376.102 155.367 372.738 155.135 369.591 155.582ZM152.368 205.602C152.151 205.941 151.958 206.298 151.713 206.616C147.175 212.518 142.369 218.237 138.154 224.362C133.18 231.589 129.024 239.33 125.798 247.663C124.542 250.275 123.392 252.802 122.207 255.313C121.579 256.642 120.275 256.475 119.385 256.047C118.423 255.583 118.542 254.602 119.118 253.57C123.868 245.068 128.428 236.456 133.288 228.019C136.27 222.843 139.491 217.779 142.97 212.929C144.831 210.334 147.456 208.284 149.768 206.021C150.075 205.72 150.554 205.508 150.982 205.443C151.426 205.376 151.905 205.539 152.368 205.602ZM164.546 239.538C159.457 240.888 156.927 244.614 157.368 249.513C157.646 252.601 158.868 254.578 161.795 255.411C165.15 256.365 168.5 255.928 171.66 254.657C176.192 252.835 179.9 250.079 181.024 244.548C181.142 243.059 180.713 241.969 179.386 240.999C174.681 237.56 169.716 238.167 164.546 239.538ZM270.64 142.538C270.516 142.692 270.392 142.754 270.268 142.908C269.871 143.087 269.378 143.054 269.089 143.279C261.894 148.901 257.381 156.245 255.009 164.971C253.883 169.115 253.372 173.341 253.559 177.604C253.888 185.106 256.242 191.963 260.509 198.202C265.171 205.019 271.364 210.035 278.759 213.555C282.997 215.572 287.495 217.024 292.259 217.278C294.402 217.392 296.596 217.039 298.699 217.352C302.739 217.953 306.498 216.866 310.23 215.78C317.745 213.594 324.358 209.818 330.023 204.36C334.203 200.333 337.817 195.955 340.204 190.645C340.251 190.541 340.31 190.442 340.363 190.34C340.434 190.478 340.581 190.626 340.564 190.752C340.208 193.447 340.381 196.177 338.464 198.583C332.53 206.03 325.648 212.304 316.732 215.947C312.917 217.505 308.845 218.506 304.816 219.455C302.393 220.026 299.823 220.268 297.33 220.203C291.025 220.037 284.942 218.706 279.122 216.202C272.908 213.528 267.466 209.772 262.83 204.895C257.438 199.223 253.674 192.62 252.083 184.944C251.45 181.886 250.947 178.726 250.989 175.62C251.123 165.919 253.975 156.975 259.625 149.034C261.164 146.87 263.234 145.072 265.112 143.156C265.998 142.253 269.929 141.817 270.64 142.538ZM278.569 142.632C278.662 142.643 278.743 142.757 278.83 142.823C278.67 142.88 278.511 142.944 278.348 142.994C272.016 144.927 267.506 149.084 264.493 154.839C262.647 158.366 261.646 162.199 261.083 166.197C259.937 174.323 261.813 181.805 265.714 188.778C270.534 197.393 277.35 203.95 286.785 207.344C289.794 208.426 292.904 209.588 296.044 209.872C303.582 210.553 310.823 209.202 317.534 205.425C322.536 202.609 326.648 198.841 330.335 194.466C334.611 189.393 337.043 183.479 338.556 177.158C339.086 174.943 338.858 172.547 338.997 170.234C339.023 169.801 339.144 169.373 339.221 168.943C339.728 169.204 340.509 169.342 340.692 169.75C341.342 171.202 342.344 172.805 342.194 174.244C341.887 177.203 341.145 180.169 340.184 182.996C337.689 190.334 333.281 196.454 327.561 201.608C322.239 206.402 316.102 209.752 309.12 211.433C306.756 212.002 304.365 212.656 301.958 212.795C299.73 212.924 297.446 212.534 295.223 212.159C292.26 211.66 289.234 211.244 286.407 210.283C278.601 207.628 272.052 203.116 266.772 196.646C262.553 191.477 260.117 185.605 258.948 179.165C257.573 171.587 258.805 164.245 261.609 157.156C263.506 152.36 266.272 148.109 270.062 144.566C270.349 144.298 270.508 143.892 270.726 143.365C270.849 143.118 270.972 143.057 271.095 142.995C273.524 141.608 276.058 142.34 278.569 142.632ZM556.818 208.713C559.357 208.74 561.891 209.085 564.43 209.284C567.519 209.527 570.606 209.831 573.701 209.95C576.661 210.064 579.634 209.902 582.596 210.006C584.055 210.057 585.542 210.315 586.929 210.727C587.401 210.868 587.607 211.768 587.935 212.321C587.484 212.455 587.042 212.627 586.581 212.713C586.045 212.813 585.494 212.838 584.856 212.809C578.698 212.609 572.633 212.449 566.568 212.402C564.112 212.383 561.653 212.699 559.196 212.685C557.992 212.678 556.785 212.285 555.588 212.031C554.34 211.766 553.968 210.731 554.433 209.975C554.832 209.325 555.998 208.705 556.818 208.713ZM296.851 147.753C298.239 154.372 299.524 161.014 300.885 167.639C301.584 171.04 300.754 172.452 297.829 174.103C293.964 176.285 290.226 178.716 286.532 181.195C284.682 182.437 283.164 182.869 282.15 181.888C281.194 180.961 281.037 180.146 282.313 179.277C286.309 176.557 290.322 173.856 294.184 170.948C295.025 170.314 295.783 168.802 295.696 167.773C295.379 164.015 294.709 160.287 294.131 156.554C293.889 154.996 293.542 153.456 293.243 151.721C293.101 150.191 292.691 148.798 292.913 147.521C293.052 146.72 294.06 145.627 294.821 145.49C296.169 145.247 296.625 146.675 296.851 147.753ZM551.513 132.287C551.738 132.523 551.862 133.164 551.703 133.398C550.942 134.521 550.068 135.568 549.141 136.734C546.151 140.811 543.291 144.822 540.313 148.745C539.923 149.259 538.661 149.748 538.263 149.506C537.252 148.889 538.163 148.231 538.582 147.532C541.366 142.895 544.059 138.204 546.818 133.552C548.088 131.41 550.153 130.866 551.513 132.287ZM466.693 72.3561C467.181 72.3969 467.728 72.9849 468.056 73.47C469.262 75.2498 468.628 77.2504 468.388 79.0993C467.97 82.3254 467.211 85.5054 466.621 88.7096C466.345 90.206 466.128 91.7137 465.885 93.4016C465.398 95.9129 464.868 98.2307 464.433 100.567C463.644 104.81 462.938 109.069 462.144 113.312C461.483 116.851 460.767 120.38 460.036 123.905C458.837 129.693 457.646 135.484 456.363 141.253C456.012 142.836 454.778 143.429 453.768 142.671C453.427 142.416 453.087 141.761 453.168 141.382C455.059 132.557 457.085 123.762 458.92 114.926C460.269 108.429 461.234 101.849 462.64 95.3663C463.981 89.1906 464.67 82.9993 464.473 76.6795C464.438 75.5864 464.951 74.4319 465.396 73.3869C465.597 72.9135 466.277 72.3213 466.693 72.3561ZM366.526 116.181C366.882 116.782 367.247 117.377 367.608 118.164C368.209 121.361 368.829 124.366 369.404 127.379C369.694 128.899 369.917 130.432 370.134 131.965C370.188 132.346 370.102 132.748 370.08 133.141C369.55 133.052 368.694 133.142 368.544 132.844C367.771 131.307 367.076 129.706 366.552 128.058C365.953 126.17 365.702 124.154 365.026 122.303C364.656 121.291 363.648 120.553 363.061 119.601C362.554 118.778 361.958 117.835 361.933 116.93C361.918 116.348 362.787 115.372 363.403 115.223C364.481 114.963 365.762 114.891 366.526 116.181Z" fill="#00160A"/>
<path d="M243.605 300.658C245.797 300.071 247.383 298.884 247.148 298.008C246.914 297.131 244.946 296.897 242.754 297.484C240.562 298.072 238.976 299.258 239.21 300.135C239.445 301.011 241.413 301.245 243.605 300.658Z" fill="#FFB61D"/>
<path fill-rule="evenodd" clip-rule="evenodd" d="M258.692 293.533C260.257 292.945 261.159 291.759 260.836 290.883C260.534 290.006 259.376 289.772 258.121 290.359C256.742 290.946 255.514 292.132 255.507 293.009C255.52 293.885 257.004 294.12 258.692 293.533Z" fill="#FFB61D"/>
</svg>
