<svg width="537" height="537" viewBox="0 0 537 537" fill="none" xmlns="http://www.w3.org/2000/svg">
<path fill-rule="evenodd" clip-rule="evenodd" d="M119.328 376.392C151.555 411.437 298.586 363.573 348.086 376.392C381.81 385.125 500.005 393.931 453.228 272.39C304.847 -113.152 17.2177 265.352 119.328 376.392Z" fill="#323232"/>
<ellipse cx="252.418" cy="108.39" rx="24.3052" ry="28.912" fill="white"/>
<path fill-rule="evenodd" clip-rule="evenodd" d="M53.3447 470.368C45.8646 474.119 39.7226 478.626 42.0111 484.228C45.9992 493.99 58.5289 497.591 72.777 500.468C92.7102 504.495 120.38 505 156.181 503.444C216.026 500.841 209.238 495.114 266.031 492.42C304.683 490.587 371.73 500.765 425.514 500.581C458.42 500.468 601.94 460.799 398.202 451.991C194.464 443.183 82.4063 455.795 53.3447 470.368Z" fill="white"/>
<path fill-rule="evenodd" clip-rule="evenodd" d="M53.3447 470.368C45.8646 474.119 39.7226 478.626 42.0111 484.228C45.9992 493.99 211.708 462.538 268.5 459.845C307.152 458.012 366.072 470.552 419.856 470.368C452.762 470.255 527.904 463.57 398.202 451.991C268.5 440.412 82.4064 455.795 53.3447 470.368Z" fill="#E7EAEE"/>
<path fill-rule="evenodd" clip-rule="evenodd" d="M160.149 450.626C105.888 454.306 68.354 460.839 52.5423 468.768C48.1174 470.986 44.882 473.095 42.7178 475.37C39.9242 478.306 38.9792 481.54 40.354 484.905C42.4249 489.974 46.5968 493.714 52.8008 496.557C57.6361 498.773 63.3793 500.377 71.8652 502.11L72.4226 502.223C91.4741 506.071 117.909 506.9 156.258 505.232L159.432 505.089C181.671 504.059 193.363 502.796 210.656 500.035L215.376 499.273C232.737 496.487 243.605 495.292 265.317 494.247L267.135 494.162C282.387 493.497 296.454 494.216 335.284 497.297L357.311 499.059C362.33 499.452 366.588 499.774 370.883 500.082L375.453 500.403C394.794 501.73 410.509 502.397 424.771 502.373L425.52 502.371C433.994 502.342 449.322 499.787 464.23 495.912L465.394 495.607C481.626 491.309 494.897 486.126 501.682 480.972C510.995 473.899 508.45 466.596 493.622 461.587C477.57 456.165 446.306 452.279 398.279 450.203C302.754 446.073 222.132 446.422 160.149 450.626ZM398.125 453.779L400.967 453.905C447.066 455.996 477.148 459.801 492.476 464.979L493.17 465.218C499.312 467.374 502.622 469.668 503.363 471.795C503.964 473.521 502.779 475.644 499.517 478.121C493.202 482.918 480.279 487.963 464.464 492.15L463.329 492.448C448.877 496.204 434.02 498.698 425.828 498.789L425.508 498.791C410.402 498.843 393.654 498.105 372.621 496.616L365.779 496.118C361.385 495.789 356.696 495.423 350.918 494.96L336.836 493.829C295.973 490.578 281.982 491.304 265.946 492.064L262.786 492.219C242.476 493.246 231.656 494.467 214.815 497.17L209.502 498.026C192.061 500.796 180.294 502.019 156.905 503.052L156.103 503.087C118.402 504.727 92.3535 502.507 73.6945 498.826L73.1314 498.714C55.2882 495.11 44.8461 492.448 41.8093 483.623C40.5522 479.969 45.6851 476.211 54.1469 471.968C69.3987 464.32 106.591 457.847 160.391 454.198C222.232 450.004 302.723 449.655 398.125 453.779Z" fill="#00160A"/>
<path fill-rule="evenodd" clip-rule="evenodd" d="M231.845 94.4263C236.118 84.2044 247.624 77.5248 258.628 78.8792C251.549 75.1367 243.342 69.2872 244.636 61.3899C245.631 55.3175 252.14 51.6371 258.248 50.8539C267.225 49.7029 277.361 53.7763 280.863 62.1143C284.365 70.4522 278.118 81.9793 269.075 81.6249C276.682 89.1453 279.443 101.171 275.877 111.252C274.086 116.314 266.334 116.61 262.369 112.987C258.403 109.364 257.264 103.669 256.339 98.3806C251.878 101.272 246.703 103.054 241.406 103.524C243.905 104.365 246.004 106.322 247.016 108.755C242.605 105.314 237.456 102.823 232.02 101.499C230.043 108.138 228.044 115.02 228.955 121.887C229.865 128.753 234.515 135.634 241.34 136.849C256.808 139.603 267.402 112.865 283.048 114.301C289.492 114.893 294.363 112.031 296.702 106.002C299.041 99.9728 296.922 92.5158 291.762 88.6135C288.695 88.7568 285.747 86.2083 285.448 83.155C285.148 80.1018 287.546 77.0301 290.582 76.5761C284.135 67.3924 285.758 53.4785 294.146 46.0223C302.535 38.5661 316.554 38.5751 324.933 46.0421C320.345 38.6418 324.693 27.4614 333.021 24.9029C341.349 22.3445 351.123 28.9145 352.098 37.5648C353.073 46.2152 345.246 54.7174 336.534 54.6825C337.984 61.3766 344.118 66.7756 350.947 67.3684C348.028 70.7412 342.437 67.5626 340.017 63.8159C337.597 60.0693 335.3 55.1987 330.857 54.7838C336.316 61.2128 339.917 69.1982 341.121 77.5427C337.36 71.7073 334.664 65.1878 333.207 58.401C333.74 63.8295 332.725 69.4011 330.312 74.2937C333.155 72.9275 336.294 76.5489 335.837 79.6672C335.38 82.7856 332.872 85.1309 330.635 87.3528C324.267 93.677 318.738 103.282 322.938 111.211C325.769 116.553 331.954 118.96 337.055 122.211C348.049 129.218 354.956 141.362 358.295 153.957C361.635 166.552 361.798 179.739 361.942 192.768C362.248 220.653 362.554 248.538 362.861 276.424C362.962 285.618 362.474 296.141 355.339 301.948C359.702 295.899 361.587 288.12 360.479 280.747C353.154 305.512 347.399 330.272 345.395 358.975C343.391 387.679 347.355 399.705 338.926 438.839C338.167 442.362 339.825 446.516 341.922 449.886C345.586 455.772 359.417 459.07 356.776 463.876C353.406 470.007 338.637 468.565 329.325 468.139C325.496 467.964 321.382 467.337 318.641 464.66C315.234 461.333 315.042 456.012 315.053 451.252C315.172 400.721 313.249 350.185 309.29 299.808C308.534 338.83 307.772 377.942 302.837 416.659C301.446 427.566 298.633 438.979 299.071 449.886C299.31 455.822 302.068 462.184 303.026 468.139C303.787 472.868 300.353 474.493 296.702 474.227C295.734 474.156 294.967 474.966 293.973 474.903C293.149 474.851 292.314 474.292 291.381 474.227C290.383 474.156 289.279 474.578 288.208 474.493C287.408 474.43 287.225 473.766 285.787 473.766C284.349 473.766 283.92 474.212 282.483 473.985C281.045 473.759 278.435 475.539 277.128 473.572C274.762 470.013 280.863 460.48 280.502 455.514C280.142 450.549 278.25 434.724 278.101 430.52C276.813 394.203 268.858 324.914 268.858 324.914C268.858 324.914 264.214 379.98 248.533 413.094C244.643 421.308 239.344 434.825 244.636 441.788C249.927 448.751 246.89 454.927 248.783 462.019C250.296 467.685 254.071 472.532 254.419 479.272C254.59 482.601 249.681 481.89 249.198 481.549C248.716 481.208 247.899 479.26 247.491 479.426C246.878 479.676 248.497 481.415 246.566 482.617C244.636 483.819 243.867 482.497 242.949 482.893C242.056 483.277 241.582 484.476 240.566 484.304C238.507 483.955 238.392 483.14 238.177 483.212C237.952 483.286 238.284 484.56 237.44 484.803C236.597 485.046 234.154 483.985 233.658 483.502C232.931 482.796 233.195 485.366 232.221 485.242C228.254 484.736 226.896 481.093 227.262 478.929C225.178 483.926 222.294 487.203 217.225 489.015C216.077 489.426 215.463 488.135 214.88 488.202C214.56 488.238 215.147 489.254 214.189 489.565C213.232 489.876 212.771 489.758 211.559 489.399C210.346 489.039 210.658 485.988 210.362 485.988C210.065 485.988 210.08 487.562 209.55 488.006C208.533 488.858 207.949 488.934 207.068 487.779C206.574 487.132 207.152 486.061 206.801 485.988C206.562 485.938 206.114 487.23 205.298 487.424C203.869 487.763 203.403 487.893 202.313 486.418C201.836 485.774 202.739 483.98 202.165 483.819C201.59 483.657 200.877 486.647 200.135 487.203C199.392 487.759 198.896 487.279 198.225 486.772C194.511 479.701 199.888 471.568 203.596 464.494C214.081 444.497 211.447 420.219 205.783 398.365C200.119 376.51 191.649 354.998 191.205 332.427C191.032 323.635 192.088 314.785 190.878 306.075C189.561 296.588 185.62 287.7 182.748 278.562C177.292 261.204 175.688 242.881 174.974 224.701C174.413 210.385 174.409 195.838 178.166 182.011C181.923 168.185 189.874 154.987 202.165 147.608C209.83 143.006 219.333 140.42 224.284 132.978C228.914 126.017 228.106 116.916 227.12 108.616C223.843 108.021 221.412 104.484 222.031 101.215C222.651 97.9447 226.208 95.5412 229.476 96.1843C228.06 93.4172 226.643 90.6501 225.227 87.883C226.134 89.2001 230.509 97.0905 230.234 87.0044C230.58 89.5099 231.195 90.2696 231.845 94.4263Z" fill="white"/>
<path fill-rule="evenodd" clip-rule="evenodd" d="M212.961 272.53C211.542 273.351 209.705 274.415 208.525 273.302C205.302 270.264 199.93 269.864 196.26 272.318L196.041 272.47L195.867 274.529C199.537 271.77 205.185 272.084 208.525 275.234C209.584 276.232 211.173 275.477 212.513 274.718L213.264 274.29C217.041 272.232 222.01 272.565 225.465 275.134C227.398 276.572 229.723 275.665 232.131 274.726C234.142 273.941 236.21 273.134 238.155 273.654C239.064 273.896 239.961 274.42 240.839 274.933C242.449 275.874 243.999 276.779 245.455 275.855C248.339 274.025 252.323 274.118 255.118 276.079L254.866 274.585L254.755 273.907C251.985 272.182 248.216 272.172 245.455 273.924C243.999 274.847 242.449 273.942 240.839 273.002C239.961 272.489 239.064 271.965 238.155 271.722C236.21 271.203 234.142 272.01 232.131 272.794C229.723 273.733 227.398 274.64 225.465 273.203C221.94 270.581 216.838 270.288 213.034 272.488L212.961 272.53ZM212.933 294.492C211.547 295.367 209.752 296.5 208.531 295.434C205.193 292.521 195.929 297.145 195.929 297.145C196.487 297.396 197.766 297.136 199.344 296.815C202.316 296.211 206.346 295.392 208.605 297.364C209.702 298.321 211.26 297.505 212.571 296.696L213.304 296.239C217 294.037 221.978 294.179 225.529 296.614C227.516 297.976 229.804 296.981 232.174 295.95C234.153 295.089 236.189 294.203 238.152 294.647C239.07 294.855 239.986 295.344 240.884 295.823C242.529 296.701 244.112 297.546 245.531 296.567L245.729 296.435C247.349 295.388 250.93 296.04 254.175 296.63C256.536 297.06 258.72 297.458 259.842 297.145C259.842 297.145 248.149 292.781 245.457 294.637C244.038 295.616 242.455 294.771 240.81 293.893C239.912 293.414 238.996 292.925 238.078 292.717C236.115 292.273 234.079 293.159 232.099 294.02C229.73 295.051 227.442 296.046 225.455 294.684C221.831 292.2 216.722 292.102 213.006 294.446L212.933 294.492ZM214.09 215.116C212.822 216.028 210.831 216.593 209.869 215.363C206.848 211.5 199.802 212.139 197.525 216.481C200.186 215.008 203.322 213.497 206.136 214.65C206.919 214.97 207.638 215.487 208.35 215.998C209.535 216.849 210.699 217.685 212.104 217.577C213.15 217.497 214.052 216.892 214.949 216.29C215.913 215.643 216.871 215.001 217.996 215.013C219.245 215.028 220.263 215.84 221.28 216.653C222.295 217.463 223.31 218.273 224.555 218.293C225.574 218.31 226.502 217.782 227.422 217.258C228.45 216.673 229.467 216.094 230.59 216.288C231.93 216.52 232.735 217.717 233.54 218.915C234.342 220.107 235.144 221.3 236.474 221.546C237.262 221.691 238.043 221.45 238.805 221.157L239.559 220.86C241.338 220.168 243.323 219.784 245.155 220.316C246.73 220.774 248.132 222.049 248.503 223.607C248.481 223.261 248.454 222.916 248.424 222.572L248.378 220.602C246.359 218.935 243.536 218.288 240.993 218.912C240.557 219.019 240.127 219.162 239.698 219.304C238.872 219.577 238.049 219.85 237.184 219.87C235.871 219.901 234.381 219.042 234.372 217.73L234.367 217.589C234.225 215.414 231.149 214.694 228.983 215.261C228.523 215.382 228.056 215.528 227.585 215.676C225.795 216.237 223.964 216.811 222.339 216.011C221.711 215.702 221.181 215.208 220.656 214.719C219.921 214.034 219.196 213.358 218.228 213.212C217.039 213.033 215.981 213.716 214.979 214.456L214.09 215.116ZM197.63 199.478C198.495 197.413 198.471 195.132 198.368 193.305C198.368 193.305 196.869 195.942 194.876 195.658L194.736 195.643C193.838 195.578 192.899 196.091 192.014 196.574C190.819 197.226 189.723 197.823 188.966 196.871C187.109 194.535 184.073 193.187 181.094 193.375C180.247 193.429 179.351 193.628 178.764 194.24C178.177 194.851 178.078 195.976 178.751 196.491C179.44 194.767 181.849 194.436 183.571 195.133C184.553 195.531 185.414 196.151 186.278 196.772C186.928 197.24 187.58 197.709 188.285 198.084C189.926 198.957 192.23 199.164 193.416 197.735L193.508 197.631C194.435 196.658 196.225 196.676 197.108 197.702C197.527 198.189 197.691 198.843 197.63 199.478ZM205.963 173.177C203.939 174.086 201.705 172.485 200.198 170.858L199.476 170.082C198.146 168.678 196.641 167.322 194.771 167.423C193.762 167.477 192.833 167.97 191.968 168.493C189.386 170.051 187.027 171.977 184.984 174.194C186.966 174.363 188.617 172.999 190.252 171.648C191.969 170.23 193.67 168.825 195.72 169.221C197.285 169.523 198.374 170.794 199.459 172.06C200.575 173.362 201.687 174.659 203.307 174.896C204.382 175.054 205.435 174.689 206.476 174.328C206.729 174.24 206.982 174.153 207.234 174.073C212.238 172.49 218.118 174.19 221.503 178.198C223.049 180.028 225.935 179.16 228.122 178.054L228.723 177.743C230.911 176.639 233.806 175.785 235.337 177.628L235.482 177.796C237.944 180.547 242.264 180.307 246.015 179.673L246.684 179.555C246.723 179.78 246.761 180.024 246.798 180.288L246.872 180.84C247.679 178.008 247.361 177.361 246.684 178.861C245.47 177.773 243.1 178.105 241.509 178.461L241.363 178.492C239.791 178.811 237.792 178.686 237.205 177.219C236.131 174.534 232.209 174.909 229.536 176.016L229.191 176.158C226.572 177.221 223.32 178.255 221.419 176.242C217.574 172.169 211.073 170.88 205.963 173.177ZM247.78 170.254C247.81 169.353 247.904 168.281 248.076 167.062L248.119 166.765C246.276 165.615 243.938 165.292 241.852 165.897C240.135 166.396 238.688 165.212 237.206 164C235.887 162.921 234.54 161.818 232.949 161.859C231.666 161.891 230.615 162.66 229.551 163.437C228.691 164.065 227.824 164.699 226.82 164.956C224.373 165.582 222.122 163.87 220.121 162.193L219.324 161.521C217.13 159.677 213.667 158.187 211.63 160.202L211.5 160.324C209.782 161.86 206.976 161.314 204.945 160.158C204.302 159.791 203.681 159.373 203.06 158.955C201.671 158.02 200.286 157.088 198.666 156.742C196.322 156.241 193.299 157.845 193.615 160.219C195.334 158.4 198.224 157.805 200.522 158.799C201.604 159.267 202.613 160.049 203.605 160.818C205.413 162.219 207.166 163.578 209.211 162.923C209.832 162.723 210.37 162.348 210.908 161.971C211.364 161.652 211.821 161.333 212.33 161.119C214.915 160.036 217.323 161.877 219.759 163.741C222.113 165.541 224.494 167.362 227.089 166.587C228.052 166.299 228.895 165.666 229.727 165.042C230.866 164.186 231.985 163.346 233.358 163.434C234.761 163.524 235.842 164.567 236.877 165.566C236.944 165.631 237.011 165.695 237.078 165.76L237.363 166.031C238.552 167.142 240.346 168.095 241.731 167.24C243.948 165.869 246.941 167.771 247.78 170.254ZM249.739 159.356C250.194 158.811 250.621 158.119 251.021 157.281C251.562 156.149 251.57 154.2 251.021 155.35C250.354 156.746 248.812 157.856 247.305 157.501C246.641 157.345 246.075 156.938 245.51 156.533C244.883 156.082 244.258 155.633 243.507 155.534C242.657 155.423 241.855 155.783 241.057 156.141C240.8 156.255 240.545 156.37 240.288 156.469C239.232 156.875 237.771 156.878 237.254 155.872C235.471 152.404 229.924 151.774 227.408 154.754C226.371 155.982 224.311 155.195 223.22 154.015C222.948 153.72 222.689 153.401 222.429 153.081C221.65 152.12 220.866 151.154 219.703 150.834C218.392 150.473 217.123 151.061 215.84 151.655C214.683 152.191 213.516 152.732 212.299 152.586C211.046 152.435 210.053 151.602 209.064 150.772C208.731 150.493 208.398 150.213 208.056 149.961C206.699 148.959 204.502 148.474 203.526 149.849C205.202 150.095 206.656 150.997 208.113 151.9C208.728 152.282 209.343 152.663 209.976 152.996C212.107 154.117 215.063 154.552 216.666 152.756L216.763 152.655C217.944 151.508 220.049 152.45 221.19 153.704C221.398 153.933 221.604 154.175 221.811 154.418C222.772 155.546 223.767 156.713 225.195 156.843C226.475 156.959 227.576 156.184 228.677 155.409C229.771 154.639 230.866 153.869 232.14 153.97C233.443 154.074 234.404 155.045 235.366 156.019C236.311 156.974 237.258 157.932 238.533 158.074C239.218 158.15 239.889 157.97 240.562 157.791C240.842 157.716 241.122 157.641 241.404 157.584C244.024 157.058 246.651 158.137 249.086 159.293L249.587 159.533L249.739 159.356ZM201.522 182.008C201.898 182.215 202.258 182.56 202.299 183.014C202.341 183.467 201.884 183.944 201.508 183.739C200.04 182.937 198.265 183.559 196.788 184.34C196.614 184.431 196.441 184.525 196.266 184.62L196.266 184.62C194.952 185.331 193.596 186.065 192.15 185.932C190.897 185.817 189.734 185.066 188.596 184.331C187.085 183.355 185.618 182.409 184.047 183.019C183.25 183.329 182.653 183.988 182.051 184.652C181.605 185.144 181.157 185.639 180.623 185.996C180.47 186.098 180.296 186.191 180.119 186.162C179.63 186.083 179.653 185.302 179.865 184.821C181.24 181.689 185.16 180.225 188.031 181.77C188.531 182.039 189 182.384 189.468 182.728C190.274 183.32 191.076 183.91 192.023 184.101C193.557 184.409 195.052 183.599 196.461 182.836C196.557 182.783 196.653 182.731 196.749 182.68C198.241 181.877 200.036 181.193 201.522 182.008ZM213.415 186.061C215.555 187.228 218.366 187.087 220.374 185.713C221.803 184.735 223.789 185.561 225.136 186.644C225.402 186.859 225.665 187.085 225.929 187.312L225.929 187.312C227.001 188.235 228.09 189.172 229.472 189.368C230.599 189.528 231.686 189.159 232.781 188.787L232.781 188.787C233.685 188.481 234.595 188.172 235.535 188.159C237.106 188.137 238.517 188.925 239.905 189.7L239.905 189.7L239.905 189.7L239.905 189.7L239.905 189.7C240.203 189.867 240.499 190.032 240.796 190.189C242.476 191.077 244.64 191.686 246.208 190.617L239.05 187.606C238.063 187.19 237.049 186.769 235.976 186.725C235 186.686 234.044 186.961 233.092 187.236C231.992 187.553 230.897 187.868 229.782 187.695C228.381 187.476 227.276 186.546 226.176 185.621L226.176 185.621L226.176 185.62L226.176 185.62L226.176 185.62C225.813 185.315 225.452 185.011 225.08 184.733C223.581 183.609 221.224 182.957 219.959 184.331C218.827 185.56 216.814 185.519 215.243 184.917C214.499 184.632 213.8 184.247 213.101 183.863L213.101 183.863C212.325 183.436 211.548 183.008 210.711 182.718C209.12 182.168 207.079 182.269 206.077 183.602C205.98 184.037 206.505 184.389 206.957 184.363C207.246 184.347 207.516 184.238 207.787 184.129C207.938 184.068 208.09 184.007 208.246 183.962C209.62 183.564 210.873 184.407 212.118 185.244L212.118 185.244C212.55 185.534 212.981 185.824 213.415 186.061ZM249.971 255.026C249.395 256.511 247.357 256.732 245.965 256.042C245.15 255.638 244.46 255.03 243.768 254.421C243.278 253.99 242.787 253.558 242.251 253.197C240.957 252.325 239.061 251.971 237.986 253.118C235.314 255.967 231.075 257.113 227.403 255.979C225.997 255.545 224.705 254.818 223.412 254.089C222.687 253.681 221.962 253.273 221.216 252.916C219.139 251.92 216.666 251.338 214.593 252.344C213.801 252.728 213.131 253.314 212.459 253.902C211.883 254.405 211.307 254.909 210.653 255.287C208.437 256.568 205.579 256.194 203.393 254.859C203.018 254.63 202.655 254.374 202.292 254.118C201.463 253.533 200.636 252.95 199.674 252.693C198.29 252.325 196.479 253.031 196.329 254.504C195.356 253.038 196.92 250.936 198.631 250.798C200.342 250.661 201.896 251.74 203.302 252.76C204.708 253.78 206.289 254.834 207.994 254.638C209.422 254.474 210.529 253.499 211.652 252.51C212.413 251.84 213.18 251.164 214.06 250.73C216.976 249.291 220.401 250.765 223.248 252.345C226.096 253.926 229.28 255.687 232.386 254.77C233.609 254.409 234.67 253.663 235.73 252.918L235.73 252.918C236.141 252.63 236.551 252.341 236.971 252.075C238.476 251.121 240.362 250.435 241.981 251.162C242.692 251.481 243.261 252.034 243.831 252.587C244.089 252.838 244.347 253.089 244.619 253.318C246.102 254.571 248.065 255.197 249.971 255.026ZM265.064 314.177C263.403 316.324 260.043 315.59 257.502 314.635C254.96 313.68 251.628 312.896 249.914 315.001C248.94 316.197 247.013 316.007 245.665 315.257C245.087 314.935 244.555 314.535 244.023 314.136L244.023 314.136C243.316 313.604 242.61 313.073 241.798 312.73C238.639 311.395 235.198 313.25 232.128 314.905C231.945 315.004 231.764 315.102 231.584 315.198C228.38 316.914 223.864 318.007 221.549 315.208C219.967 313.295 216.892 313.779 214.667 314.881C214.216 315.105 213.765 315.349 213.312 315.594L213.312 315.594C211.534 316.556 209.73 317.532 207.758 317.358C206.009 317.203 204.432 316.161 202.888 315.141C200.928 313.847 199.022 312.588 196.886 313.223C196.215 313.423 195.611 313.803 195.009 314.181L195.009 314.181C194.245 314.661 193.487 315.137 192.604 315.238C192.607 313.05 195 311.494 197.189 311.532C199.286 311.569 201.201 312.623 203.045 313.638L203.291 313.773C205.21 314.827 207.313 315.847 209.489 315.597C210.991 315.425 212.319 314.672 213.65 313.919L213.65 313.919C214.223 313.594 214.797 313.269 215.385 312.99C217.339 312.064 220.002 311.782 221.384 313.445C223.182 315.609 226.555 315.651 229.205 314.703C230.457 314.255 231.638 313.636 232.819 313.016C234.137 312.324 235.454 311.633 236.869 311.182C239.551 310.326 242.965 310.626 244.526 312.966C245.484 314.4 247.654 314.297 249.245 313.629C249.687 313.443 250.123 313.225 250.559 313.007L250.559 313.007C251.69 312.442 252.82 311.877 254.065 311.869C255.388 311.861 256.675 312.483 257.932 313.091C259.603 313.898 261.223 314.681 262.812 313.931L265.064 314.177ZM229.522 236.162C227.721 236.478 226.108 235.513 224.472 234.535C223.068 233.695 221.648 232.846 220.081 232.79C218.215 232.723 216.541 233.779 214.883 234.825C213.058 235.976 211.253 237.115 209.232 236.729C208.429 236.575 207.702 236.187 206.974 235.798L206.974 235.798C206.611 235.604 206.249 235.411 205.877 235.246C203.086 234.008 199.63 234.505 197.284 236.48C197.734 234.402 199.814 232.981 201.897 232.811C203.981 232.641 206.027 233.496 207.792 234.636C209.296 235.607 211.3 235.206 212.892 234.395C213.529 234.07 214.138 233.686 214.745 233.303C215.656 232.728 216.565 232.154 217.569 231.782C220.364 230.745 223.723 231.526 225.8 233.694C227.063 235.013 229.223 234.659 230.899 233.966C231.14 233.866 231.382 233.761 231.626 233.656C233.08 233.025 234.583 232.374 236.092 232.733C237.43 233.051 238.49 234.103 239.528 235.133C240.793 236.388 242.025 237.612 243.691 237.44C244.234 237.384 244.74 237.173 245.248 236.962L245.249 236.962C245.622 236.806 245.996 236.651 246.386 236.556C247.306 236.332 248.518 236.65 248.716 237.592C246.08 238.597 243.005 239.572 240.581 238.113C239.822 237.655 239.175 236.98 238.537 236.313C237.525 235.257 236.533 234.221 235.14 234.101C234.003 234.002 232.988 234.565 231.961 235.135C231.176 235.571 230.383 236.011 229.522 236.162ZM217.547 201.234C218.509 200.626 219.471 200.018 220.595 199.927C222.305 199.789 223.742 200.858 225.136 201.895L225.136 201.895L225.136 201.895C225.446 202.126 225.754 202.355 226.063 202.569C227.757 203.744 230.538 204.344 231.655 202.661C232.31 201.675 233.875 201.617 234.966 202.153C235.76 202.543 236.389 203.155 237.018 203.766C237.254 203.995 237.49 204.224 237.734 204.441C238.757 205.351 240.019 206.094 241.416 206.222C242.814 206.35 244.342 205.741 244.953 204.544C241.643 205.219 237.966 203.74 236.179 201.016C235.278 199.642 233.049 200.303 231.589 201.144C230.129 201.984 227.983 202.757 226.955 201.465C224.559 198.453 219.381 197.919 216.358 200.373C214.882 201.57 212.561 200.773 211.078 199.584C210.689 199.272 210.315 198.933 209.94 198.593C208.886 197.639 207.83 196.683 206.447 196.326C204.018 195.699 201.234 197.563 201.047 199.941C201.73 200.022 202.447 199.666 202.764 199.088C203.472 197.8 205.406 197.559 206.817 198.124C207.94 198.572 208.835 199.378 209.725 200.18L209.725 200.18C209.954 200.386 210.183 200.593 210.416 200.793C211.551 201.768 212.955 202.655 214.483 202.541C215.613 202.456 216.58 201.845 217.547 201.234L217.547 201.234Z" fill="#FFB61D"/>
<path fill-rule="evenodd" clip-rule="evenodd" d="M231.845 94.4263C236.117 84.2044 247.624 77.5248 258.628 78.8792C251.549 75.1367 243.342 69.2872 244.636 61.3899C245.631 55.3175 252.14 51.6371 258.248 50.8539C267.225 49.7029 277.361 53.7763 280.863 62.1143C284.365 70.4522 278.118 81.9793 269.075 81.6249C276.682 89.1453 279.443 101.171 275.876 111.252C274.086 116.314 266.334 116.61 262.369 112.987C258.403 109.364 257.264 103.669 256.339 98.3806C251.878 101.272 246.703 103.054 241.406 103.524C243.905 104.365 246.004 106.322 247.016 108.755C242.605 105.314 237.456 102.823 232.019 101.499C230.043 108.138 228.044 115.02 228.955 121.887C229.865 128.753 234.515 135.634 241.34 136.849C249.207 138.249 255.813 132.022 262.464 125.752C268.891 119.693 275.359 113.595 283.048 114.301C289.492 114.893 294.363 112.031 296.702 106.002C299.04 99.9728 296.922 92.5158 291.762 88.6135C288.695 88.7568 285.747 86.2083 285.448 83.155C285.148 80.1018 287.546 77.0301 290.582 76.5761C284.135 67.3924 285.758 53.4785 294.146 46.0223C302.535 38.5661 316.554 38.5751 324.933 46.0421C320.345 38.6418 324.693 27.4614 333.021 24.9029C341.349 22.3445 351.123 28.9145 352.098 37.5648C353.073 46.2152 345.246 54.7174 336.534 54.6825C337.984 61.3766 344.118 66.7756 350.947 67.3684C348.028 70.7412 342.437 67.5626 340.017 63.8159C339.672 63.2811 339.329 62.7233 338.982 62.1589L338.981 62.1586C336.898 58.7693 334.666 55.1394 330.857 54.7838C336.316 61.2128 339.917 69.1982 341.121 77.5427C337.36 71.7073 334.664 65.1878 333.207 58.401C333.74 63.8295 332.725 69.4011 330.312 74.2937C333.155 72.9275 336.294 76.5489 335.837 79.6672C335.402 82.6327 333.113 84.8991 330.966 87.025L330.801 87.1879L330.635 87.3528C324.267 93.677 318.738 103.282 322.938 111.211C325.113 115.315 329.268 117.687 333.39 120.04C334.633 120.75 335.873 121.458 337.055 122.211C348.049 129.218 354.956 141.362 358.295 153.957C361.635 166.552 361.798 179.739 361.942 192.768L362.861 276.424C362.962 285.618 362.474 296.141 355.339 301.948C359.702 295.899 361.587 288.12 360.478 280.747C353.154 305.512 347.399 330.272 345.395 358.975C344.744 368.294 344.723 375.854 344.702 383.156V383.156C344.658 398.344 344.618 412.41 338.926 438.839C338.167 442.362 339.825 446.516 341.922 449.886C343.51 452.437 347.007 454.501 350.246 456.414C354.48 458.914 358.272 461.153 356.776 463.876C353.724 469.429 341.323 468.77 332.093 468.28C331.131 468.228 330.203 468.179 329.324 468.139C325.496 467.964 321.382 467.337 318.641 464.66C315.234 461.333 315.042 456.012 315.053 451.252C315.172 400.721 313.249 350.185 309.29 299.808C308.534 338.83 307.772 377.942 302.837 416.659C302.423 419.901 301.884 423.187 301.343 426.492C300.061 434.305 298.763 442.221 299.071 449.886C299.212 453.373 300.221 457.007 301.224 460.619C301.929 463.156 302.631 465.682 303.026 468.139C303.787 472.868 300.353 474.493 296.702 474.227C296.219 474.191 295.786 474.375 295.349 474.561C294.912 474.747 294.471 474.935 293.973 474.903C293.571 474.878 293.167 474.732 292.75 474.582C292.312 474.423 291.859 474.26 291.381 474.227C290.895 474.192 290.385 474.274 289.865 474.358L289.865 474.358C289.316 474.446 288.758 474.536 288.208 474.493C287.881 474.467 287.657 474.341 287.408 474.2C287.048 473.998 286.637 473.766 285.787 473.766C285.177 473.766 284.748 473.846 284.347 473.921C283.803 474.023 283.31 474.116 282.483 473.985C282.002 473.91 281.391 474.058 280.741 474.216C279.447 474.53 277.998 474.882 277.128 473.572C275.786 471.553 277.168 467.611 278.55 463.671C279.604 460.666 280.658 457.663 280.502 455.514C280.348 453.393 279.915 449.289 279.457 444.956L279.457 444.955L279.457 444.954L279.457 444.953L279.456 444.953L279.456 444.952L279.456 444.95C278.843 439.144 278.186 432.927 278.101 430.52C276.813 394.203 274.004 357.604 268.324 321.71C258.988 328.046 248.789 333.112 238.098 336.725C234.34 337.995 233.455 342.811 233.194 346.767C231.285 375.722 229.507 405.667 239.457 432.929C252.368 399.24 262.083 364.328 268.429 328.815C265.32 357.652 258.369 386.073 247.817 413.094C244.263 422.193 239.344 434.825 244.636 441.788C247.96 446.163 247.997 450.228 248.035 454.404C248.057 456.874 248.08 459.383 248.783 462.019C249.36 464.177 250.264 466.217 251.182 468.287C252.674 471.652 254.203 475.099 254.419 479.272C254.59 482.601 249.68 481.89 249.198 481.549C248.995 481.405 248.731 480.974 248.464 480.536C248.099 479.939 247.727 479.33 247.491 479.426C247.273 479.515 247.337 479.792 247.423 480.165C247.58 480.844 247.811 481.842 246.566 482.617C245.37 483.362 244.619 483.137 244.003 482.953C243.626 482.84 243.298 482.742 242.949 482.893C242.599 483.043 242.314 483.319 242.035 483.588C241.601 484.006 241.184 484.409 240.565 484.304C239.105 484.057 238.623 483.575 238.389 483.341C238.293 483.245 238.239 483.191 238.177 483.212C238.1 483.237 238.088 483.401 238.072 483.616C238.042 484.034 237.997 484.643 237.44 484.803C236.597 485.046 234.291 484.069 233.794 483.586C233.435 483.237 233.284 483.668 233.106 484.178C232.924 484.7 232.713 485.304 232.221 485.242C228.254 484.736 226.896 481.093 227.262 478.929C225.178 483.926 222.294 487.203 217.225 489.015C216.521 489.267 216.018 488.879 215.6 488.557C215.336 488.353 215.105 488.176 214.88 488.202C214.763 488.215 214.767 488.359 214.773 488.552C214.783 488.886 214.797 489.368 214.189 489.565C213.232 489.876 212.771 489.758 211.559 489.399C210.751 489.159 210.62 487.726 210.534 486.795C210.492 486.328 210.461 485.988 210.362 485.988C210.227 485.988 210.157 486.31 210.071 486.705C209.967 487.181 209.84 487.763 209.55 488.006C208.533 488.858 207.949 488.934 207.068 487.779C206.793 487.419 206.85 486.927 206.894 486.549C206.93 486.248 206.956 486.02 206.801 485.988C206.708 485.968 206.585 486.15 206.42 486.391C206.16 486.774 205.798 487.305 205.298 487.424L205.249 487.435C203.859 487.765 203.391 487.876 202.313 486.418C202.076 486.098 202.18 485.494 202.274 484.948C202.369 484.395 202.454 483.9 202.164 483.819C201.86 483.733 201.516 484.534 201.15 485.388C200.825 486.144 200.483 486.942 200.134 487.203C199.451 487.714 198.978 487.35 198.384 486.893C198.332 486.853 198.279 486.812 198.225 486.772C194.934 480.506 198.781 473.406 202.281 466.948C202.73 466.119 203.174 465.3 203.596 464.494C214.081 444.497 211.447 420.219 205.783 398.365C204.319 392.716 202.667 387.09 201.016 381.463L201.015 381.463C196.276 365.319 191.534 349.164 191.205 332.427C191.144 329.334 191.235 326.234 191.326 323.136C191.494 317.426 191.662 311.721 190.878 306.075C189.943 299.338 187.684 292.902 185.424 286.465L185.424 286.464C184.502 283.837 183.58 281.21 182.748 278.562C177.292 261.204 175.688 242.881 174.974 224.701C174.413 210.385 174.408 195.838 178.166 182.011C181.923 168.185 189.874 154.987 202.164 147.608C204.4 146.266 206.791 145.096 209.18 143.926C214.985 141.085 220.777 138.25 224.284 132.978C228.914 126.017 228.106 116.916 227.12 108.616C223.843 108.021 221.412 104.484 222.031 101.215C222.651 97.9447 226.208 95.5412 229.476 96.1843L225.227 87.883C225.313 88.0085 225.431 88.1937 225.574 88.4173L225.574 88.4175C226.925 90.5409 230.483 96.1293 230.234 87.0044C230.391 88.1447 230.604 88.9234 230.851 89.8253L230.851 89.8254C231.147 90.9051 231.491 92.1615 231.845 94.4263ZM351.227 281.607C352.115 280.541 352.458 279.135 352.745 277.778C357.276 256.357 354.053 234.816 343.804 215.465C321.066 217.411 298.135 217.091 275.46 214.512C272.105 214.131 269.961 217.927 268.895 221.129C262.97 238.922 260.861 257.973 262.75 276.629C263.076 279.846 266.94 281.245 270.136 281.756C277.46 282.927 281.506 282.176 287.506 281.063C292.114 280.208 297.873 279.139 307.154 278.562C308.249 278.494 308.2 274.745 308.137 269.966V269.966C308.07 264.868 307.987 258.597 309.262 254.373C313.197 321.781 315.948 389.258 317.512 456.763C317.561 458.864 317.652 461.105 318.864 462.823C320.581 465.26 323.913 465.821 326.888 466.027C336.106 466.667 353.676 467.042 354.396 463.666C353.944 460.653 350.514 458.938 347.3 457.331L347.299 457.331C346.656 457.009 346.021 456.692 345.421 456.369C340.267 453.601 337.53 447.612 337.013 441.788C336.551 436.585 337.565 431.395 338.569 426.253C338.632 425.931 338.695 425.609 338.757 425.288C338.814 424.997 338.87 424.706 338.926 424.415C341.972 408.485 343.272 392.222 342.795 376.011C342.754 374.608 342.699 373.204 342.645 371.8L342.645 371.797C342.453 366.87 342.262 361.941 342.642 357.029C343.116 350.913 344.468 344.914 345.819 338.923L345.819 338.92L345.82 338.917L345.821 338.914L345.821 338.911L345.822 338.908L345.822 338.905L345.823 338.902L345.824 338.9L345.824 338.897L345.825 338.894L345.826 338.891L345.826 338.888C346.102 337.664 346.378 336.441 346.646 335.217C350.319 318.448 352.582 301.372 353.406 284.226C339.989 290.058 323.794 289.036 311.218 281.565C322.13 285.864 334.194 285.77 345.784 283.967C347.784 283.656 349.932 283.161 351.227 281.607ZM360.227 177.272C358.809 164.833 355.86 152.569 351.47 140.843C350.674 138.717 349.439 137.114 348.117 135.397C347.747 134.916 347.369 134.425 346.992 133.912C343.849 129.628 339.303 126.831 334.734 124.02C331.163 121.822 327.576 119.616 324.634 116.683C320.596 120.423 315.002 122.429 309.505 122.108C304.009 121.788 298.686 119.144 295.111 114.96C294.847 114.651 294.379 114.645 293.973 114.667C287.213 115.032 280.419 116.263 274.292 119.141C268.166 122.019 262.728 126.648 259.662 132.68C258.41 135.144 257.569 137.795 256.783 140.445C252.804 153.851 250.065 167.623 248.613 181.531C248.526 182.363 248.472 183.296 249.008 183.939C249.37 184.373 249.931 184.58 250.469 184.752C255.191 186.266 260.314 186.511 265.159 185.456L251.663 183.557C250.86 183.444 249.819 182.589 250.468 182.103C250.679 181.944 250.971 181.97 251.233 182.003L267.135 183.993C267.842 184.082 268.259 183.224 268.376 182.521C268.713 180.487 268.452 178.347 268.194 176.232C267.807 173.06 267.426 169.946 269.083 167.334C270.539 181.487 270.273 195.816 268.292 209.905C268.061 211.55 270.212 212.36 271.863 212.556C294.456 215.234 317.296 215.843 340 214.372C343.548 214.143 346.231 210.747 346.866 207.252C347.5 203.756 346.569 200.188 345.645 196.758L338.688 170.929C338.267 169.365 337.95 167.424 339.172 166.36L343.391 182.646C343.565 183.318 343.804 184.072 344.433 184.367C344.893 184.582 345.432 184.483 345.93 184.38L357.005 182.078C357.938 181.885 358.934 181.656 359.578 180.955C360.449 180.006 360.373 178.552 360.227 177.272ZM248.101 170.774C248.101 169.177 248.618 166.717 249.191 163.986C250.933 155.696 253.198 144.914 243.118 148.22L242.942 148.278C238.938 149.591 234.206 151.144 229.916 149.781C225.563 148.398 221.869 145.071 220.041 140.888C221.202 140.03 222.637 141.456 223.517 142.599C227.785 148.142 236.08 150.129 242.399 147.123C245.493 145.65 245.513 141.326 245.064 137.931C238.263 140.226 229.989 135.443 228.59 128.408C227.246 133.086 224.125 137.23 219.999 139.816C218.447 140.789 216.774 141.541 215.101 142.293L215.101 142.293C214.575 142.529 214.05 142.766 213.528 143.009C192.942 152.6 178.374 173.964 176.973 196.616C176.911 197.619 177.115 198.944 178.108 199.108L193.384 201.619C193.566 201.649 193.734 201.683 193.895 201.715C194.721 201.881 195.35 202.007 196.709 201.383C198.331 200.638 198.636 192.74 198.484 190.291C198.331 187.843 198.169 184.719 200.386 183.666C200.589 191.59 199.29 199.424 197.989 207.266C196.933 213.632 195.876 220.005 195.621 226.435C195.539 228.505 195.603 230.581 195.666 232.655C195.736 234.939 195.806 237.221 195.681 239.489C194.041 269.374 193.742 337.212 193.742 337.212C193.742 337.212 222.594 334.96 233.195 332.427C248.824 328.691 259.046 324.132 264.204 321.83C266.568 320.776 267.869 320.196 268.14 320.386C267.188 314.84 264.683 304.002 261.778 291.435L261.778 291.435C256.079 266.78 248.843 235.473 248.783 224.434C248.779 223.668 248.425 222.639 248.133 221.79C247.697 220.526 247.4 219.664 248.61 220.679L248.376 210.814C248.322 208.539 248.161 203.552 247.994 202.425C246.191 190.302 247.019 182.636 247.639 176.897C247.886 174.602 248.101 172.615 248.101 170.774ZM286.43 470.687C286.685 473.766 288.792 474.198 290.582 472.713C291.173 472.223 291.39 470.476 291.61 468.707L291.61 468.706C291.65 468.384 291.69 468.061 291.732 467.745C292.062 468.515 292.111 469.669 292.156 470.739C292.216 472.179 292.27 473.469 292.997 473.469C295.889 473.469 295.428 468.433 295.21 466.052L295.21 466.051L295.187 465.803C295.182 465.738 295.176 465.676 295.171 465.616C295.764 464.754 296.725 467.065 296.481 468.402C296.236 469.74 296.205 471.456 297.169 472.415C298.705 473.942 301.078 471.476 301.363 469.331C301.861 465.585 300.597 461.992 299.322 458.37C298.423 455.815 297.518 453.245 297.223 450.596C296.838 447.139 297.506 443.668 298.164 440.246L298.263 439.731C304.235 408.561 305.213 376.68 306.174 344.958L308.088 281.778C294.084 285.148 279.383 285.596 265.2 283.085C264.408 282.944 264.142 284.105 264.231 284.903C265.882 299.677 268.189 314.397 270.495 329.111L270.495 329.111C274.873 357.05 279.249 384.968 279.129 413.192C279.12 415.122 279.091 417.055 279.062 418.99V418.991V418.991V418.992V418.992V418.993V418.994V418.994V418.995V418.996V418.996V418.997V418.998V418.998V418.999V419C278.933 427.614 278.803 436.251 280.502 444.673C280.659 445.451 280.831 446.233 281.004 447.017C281.864 450.916 282.737 454.873 281.777 458.701C281.389 460.249 280.708 461.767 280.031 463.275C278.735 466.162 277.457 469.01 278.292 471.951C278.532 472.793 279.187 473.721 280.051 473.572C281.114 473.389 281.119 472.089 281.123 470.814C281.127 469.53 281.132 468.272 282.216 468.202C282.027 470.112 283.121 473.294 284.369 472.913C285.163 472.913 285.307 471.481 285.462 469.946C285.569 468.879 285.681 467.762 286.021 467.041C286.644 468.048 286.542 469.062 286.463 469.847C286.43 470.172 286.401 470.458 286.43 470.687ZM260.174 262.016C260.098 252.836 261.889 243.753 263.673 234.747C265.122 227.427 266.663 219.883 270.875 213.721C269.618 214.311 268.069 213.402 267.466 212.152C266.864 210.902 266.95 209.444 267.05 208.06L268.427 188.958C268.501 187.925 268.036 186.424 267.048 186.738C261.955 188.359 256.315 188.21 251.314 186.323C250.565 186.04 250.107 187.144 250.072 187.943C248.442 224.894 260.289 275.943 260.174 262.016ZM241.13 477.379C241.866 477.276 242.422 478.95 242.885 480.343C243.11 481.022 243.314 481.634 243.505 481.941C244.12 482.93 245.797 482.552 246.388 481.549C246.701 481.017 246.65 479.783 246.607 478.739C246.569 477.812 246.537 477.035 246.771 477.035C248.085 477.035 248.508 478.086 248.91 479.088C249.309 480.079 249.688 481.021 250.891 480.848C251.875 480.707 252.51 479.719 252.787 478.766C253.791 475.314 251.912 472.14 249.993 468.9C248.956 467.148 247.908 465.377 247.297 463.533C246.479 461.063 246.466 458.43 246.453 455.799C246.439 453.029 246.425 450.262 245.471 447.694C244.859 446.047 243.89 444.569 242.924 443.096L242.924 443.096L242.923 443.095C242.726 442.794 242.529 442.494 242.335 442.192C232.384 426.706 230.59 407.465 230.234 389.065C229.911 372.41 230.539 355.736 232.114 339.152L225.879 340.044L194.452 344.539C199.246 372.927 207.183 400.677 215.105 428.357C216.117 431.894 217.132 435.441 218.543 438.839C220.05 442.472 222.005 445.919 224.35 449.079C227.866 453.817 227.6 460.206 227.354 466.142L227.342 466.425L227.323 466.899C227.307 467.29 227.289 467.687 227.272 468.088C227.009 473.988 226.705 480.791 231.845 483.4C233.11 484.042 232.936 482.863 232.721 481.402C232.554 480.272 232.362 478.972 232.794 478.219C232.934 479.579 233.09 480.989 233.794 482.161C234.498 483.334 235.915 484.198 237.23 483.819C237.6 483.617 237.447 482.714 237.262 481.631C237.065 480.468 236.832 479.098 237.171 478.16C237.582 478.83 237.762 479.531 237.949 480.261C238.149 481.04 238.358 481.853 238.866 482.701C239.745 484.169 241.963 483.342 242.11 481.983C242.194 481.219 241.873 480.51 241.558 479.815C241.192 479.006 240.835 478.216 241.13 477.379ZM190.579 297.47C192.413 275.063 194.248 252.617 193.995 230.136C193.99 229.726 193.985 229.316 193.979 228.906C193.935 225.492 193.891 222.074 194.243 218.68C194.611 215.144 195.409 211.653 196.616 208.309L177.936 206.034C177.678 206.003 177.378 205.985 177.197 206.173C177.061 206.314 177.041 206.527 177.028 206.723C175.007 237.475 179.662 268.647 190.579 297.47ZM345.077 187.622L347.355 196.819C348.128 199.944 348.907 203.126 348.725 206.339C348.542 209.553 347.248 212.862 344.619 214.722C352.659 226.065 355.407 240.366 355.85 254.258C356.085 261.646 355.728 269.032 355.37 276.419C355.056 282.922 354.741 289.427 354.831 295.933C360.253 281.53 360.47 265.773 360.62 250.385L361.026 208.86C361.109 200.344 361.19 191.795 360.074 183.353L346.992 185.937C346.053 186.123 344.848 186.693 345.077 187.622ZM297.798 45.5067C291.855 48.5029 288.772 55.5571 288.91 62.2067C288.968 64.9815 289.752 68.109 292.193 69.4334C293.763 70.2854 295.822 70.1408 297.258 69.0778C298.693 68.0148 299.43 66.0887 299.071 64.3399C298.901 63.5096 300.029 62.8779 300.806 63.2185C301.582 63.5591 301.957 64.4557 302.068 65.296C302.11 65.6198 302.125 65.9476 302.14 66.275C302.163 66.7973 302.187 67.3187 302.323 67.8215C302.699 69.2093 303.991 70.2995 305.424 70.4371C306.856 70.5748 308.333 69.7505 308.966 68.4598C309.13 68.1262 309.243 67.7647 309.356 67.4047C309.549 66.7915 309.74 66.1826 310.176 65.7237C310.869 64.9956 312.542 65.3447 312.321 66.3246C311.869 68.329 313.984 70.3055 316.028 70.0808C318.072 69.8561 319.645 67.905 319.874 65.8631L319.891 65.7077C320.014 64.5905 320.173 63.152 321.259 63.0552C322.165 63.9574 322.373 65.3084 322.578 66.6406C322.806 68.1286 323.031 69.5931 324.222 70.3822C325.911 71.5017 328.241 70.2372 329.39 68.5683C331.03 66.1855 331.355 63.0718 330.768 60.24C330.181 57.4081 328.762 54.8152 327.146 52.4159C325.93 50.6094 324.578 48.871 322.915 47.464C317.739 43.085 310.263 42.516 303.589 43.7257C301.595 44.0872 299.607 44.5943 297.798 45.5067ZM213.691 429.204C212.979 433.016 212.686 436.858 212.393 440.7C212.101 444.542 211.808 448.384 211.096 452.195C210.894 453.276 209.348 456.223 207.384 459.968C203.446 467.476 197.826 478.191 197.982 483.502C198.01 484.461 198.445 486.35 199.257 486.232C200.784 486.011 201.068 484.326 201.332 482.757C201.364 482.566 201.396 482.376 201.43 482.191C201.741 480.489 201.999 479.971 203.712 480.222C204.236 480.387 204.236 481.049 203.644 482.191C203.052 483.333 202.617 484.77 203.311 485.853C204.006 486.936 206.195 486.647 206.087 485.366C206.001 484.342 206.731 483.31 207.725 483.05C208.059 483.633 207.916 484.422 207.782 485.162C207.616 486.078 207.463 486.919 208.245 487.203C209.316 487.592 209.893 486.003 210.092 484.881C210.292 483.76 211.811 482.554 212.294 483.586C211.013 485.142 209.688 488.821 213.232 488.821C214.217 488.821 214.203 487.214 214.188 485.608C214.181 484.805 214.174 484.002 214.292 483.4C215.239 483.34 215.623 484.634 215.454 485.567C215.414 485.789 215.363 485.983 215.317 486.159C215.168 486.725 215.065 487.114 215.518 487.678C216.359 488.728 218.056 487.944 219.023 487.008C222.761 483.389 224.758 478.909 225.523 473.766C226.287 468.623 225.922 463.387 225.556 458.2C225.365 455.504 225.111 452.634 223.459 450.495C218.644 444.261 215.275 436.918 213.691 429.204ZM309.449 70.8876C307.594 72.8066 304.116 72.7863 302.284 70.8458C302.114 70.6658 301.956 70.4721 301.799 70.2786C301.477 69.8823 301.155 69.4869 300.729 69.2117C300.095 68.8023 299.093 68.8001 298.726 69.4597C297.194 72.2183 293.033 73.0481 290.558 71.0885L295.69 90.6296C296.646 94.2673 297.701 98.0851 300.353 100.754C302.027 102.438 304.215 103.523 306.453 104.323C307.655 104.753 308.91 105.113 310.187 105.077C311.617 105.037 312.989 104.501 314.253 103.834C319.556 101.035 323.33 95.8723 325.457 90.2696C327.585 84.667 328.216 78.6129 328.469 72.6258C325.591 73.6063 322.104 72.2721 320.618 69.6214C318.633 71.5382 315.5 72.1616 312.931 71.1506C312.887 71.133 312.841 71.115 312.796 71.0968L312.635 71.0323C311.534 70.589 310.24 70.0683 309.449 70.8876ZM274.659 93.8686C272.9 88.2007 268.522 83.2056 262.827 81.5214C260.771 80.9133 258.607 80.7374 256.463 80.7849C246.224 81.0119 235.737 87.2809 232.822 97.0906C232.589 97.8724 232.417 98.7621 232.827 99.4669C233.223 100.146 234.037 100.442 234.796 100.647C241.432 102.442 248.872 100.97 254.322 96.7823L254.366 96.7486L254.456 96.6785L254.459 96.6764L254.463 96.6732C255.063 96.2097 255.684 95.7296 256.428 95.6158C257.23 95.4929 258.194 96.0208 258.19 96.8321C258.154 103.792 261.644 111.243 268.14 113.757C269.493 114.281 271.143 114.537 272.305 113.667C273.048 113.111 273.431 112.207 273.749 111.335C275.779 105.758 276.418 99.5365 274.659 93.8686ZM247.095 66.1863C248.335 68.9896 250.619 71.1924 253.007 73.1163C257.163 76.4642 262.063 79.2823 267.398 79.4738C272.733 79.6652 278.452 76.5486 279.826 71.3947C280.541 68.7119 280.038 65.8482 279.183 63.2066C278.29 60.4485 276.887 57.6648 274.404 56.1639C267.708 52.1147 259.032 51.5333 251.854 54.6528C250.323 55.3181 248.822 56.1712 247.776 57.4711C245.853 59.8599 245.854 63.383 247.095 66.1863ZM345.91 45.5505C348.886 40.0689 348.315 32.8602 344.513 27.9143C343.964 27.1996 343.336 26.5162 342.535 26.1023C341.751 25.6973 340.851 25.5767 339.969 25.5441C335.513 25.3791 331.029 27.4318 328.245 30.9114C325.46 34.391 324.443 39.2131 325.584 43.5199C326.219 43.2197 326.461 42.4571 326.639 41.7779C326.818 41.0987 327.067 40.3364 327.707 40.0468C328.348 39.7573 329.281 40.5195 328.853 41.0767C327.424 42.9378 326.74 45.3545 326.982 47.6878C327.219 48.1985 327.955 47.6257 328.158 47.1008L329.072 44.7468C329.287 44.1932 329.528 43.6053 330.021 43.2734C330.514 42.9414 331.333 43.0366 331.532 43.5961L329.267 48.2756C328.975 48.8795 328.814 49.825 329.454 50.0269L335.77 45.2026C336.577 46.1175 335.835 47.5918 334.853 48.3156C334.552 48.5376 334.225 48.7345 333.899 48.9312C333.162 49.3758 332.427 49.8189 331.994 50.5456C334.138 50.8003 336.31 50.8105 338.457 50.576C339.602 50.4507 340.756 50.2512 341.803 49.7679C343.616 48.9304 344.957 47.3049 345.91 45.5505ZM298.245 115.123C300.549 117.503 303.911 118.494 307.154 119.175C311.963 120.185 317.482 120.556 321.29 117.452C322.071 116.816 322.797 115.786 322.374 114.872C320.584 111.012 319.921 106.639 320.485 102.423C319.693 102.289 319.059 103.024 318.543 103.639C316.593 105.966 313.749 107.637 310.714 107.772C306.498 107.959 302.745 105.311 299.366 102.785C299.109 105.636 298.32 108.439 297.052 111.007C296.377 112.374 297.184 114.027 298.245 115.123ZM194.207 341.533C195.3 342.223 196.695 342.129 197.982 342.009C217.171 340.221 236.949 337.926 253.703 328.409C239.684 333.583 224.741 335.647 209.935 337.678C204.563 338.414 199.096 339.15 193.742 338.288C192.686 339.032 193.114 340.843 194.207 341.533ZM246.332 138.446L246.771 143.825C246.808 144.281 246.85 144.752 247.076 145.149C247.349 145.632 247.851 145.933 248.331 146.213L252.099 148.41C252.281 148.516 252.49 148.625 252.69 148.561C252.93 148.484 253.027 148.205 253.091 147.961L256.518 134.92C253.034 135.815 249.623 136.995 246.332 138.446ZM195.085 206.076C195.405 206.089 195.736 206.1 196.032 205.98C196.834 205.653 196.978 204.6 196.999 203.735C190.339 203.147 183.727 202.017 177.25 200.361C176.292 201.061 176.475 202.652 177.314 203.491C178.153 204.329 179.389 204.604 180.559 204.806C185.352 205.634 190.225 205.873 195.085 206.076ZM226.621 105.741C227.631 106.092 228.576 104.98 228.796 103.935C228.868 103.589 228.904 103.231 228.94 102.874C229.012 102.152 229.084 101.433 229.462 100.826C230.021 99.9278 229.249 98.6573 228.222 98.4002C227.196 98.1432 226.121 98.6233 225.277 99.2617C223.892 100.309 222.832 102.212 223.629 103.754C224.194 104.844 225.461 105.337 226.621 105.741ZM333.749 77.4716C333.658 77.1154 333.529 76.758 333.285 76.4833C332.563 75.6717 331.132 75.9676 330.426 76.7923C329.719 77.617 329.544 78.7581 329.409 79.8352C329.24 81.1796 329.088 82.5262 328.954 83.8746C328.919 84.2272 329.054 84.7412 329.399 84.6589C332.432 83.9352 334.516 80.4916 333.749 77.4716ZM291.19 85.5529C291.415 85.425 291.631 85.2583 291.746 85.0261C291.924 84.6683 291.829 84.2417 291.73 83.8546L291.146 81.5597C290.916 80.6562 290.563 79.6152 289.675 79.3266C288.684 79.0043 287.681 79.8664 287.225 80.8025C286.55 82.1867 286.612 84.0204 287.712 85.0988C288.607 85.9768 290.098 86.1715 291.19 85.5529ZM335.11 53.0525C334.353 52.6722 333.461 52.5667 332.636 52.7599C333.327 53.5333 334.496 53.8397 335.479 53.5049C335.76 53.3541 335.473 52.8175 335.191 52.9669L335.11 53.0525ZM344.054 181.841L356.988 178.701C357.212 178.647 357.467 178.596 357.663 178.707C358.172 178.994 357.559 179.656 357.003 179.864C353.48 181.188 349.734 182.039 345.93 182.382C345.23 182.445 344.356 182.407 344.054 181.841ZM236.172 110.565C236.568 110.348 236.715 109.935 236.864 109.521C236.927 109.345 236.99 109.169 237.072 109.007C237.348 108.463 238.339 108.118 238.574 108.678C239.409 110.675 241.692 112.094 244.04 112.076C244.882 112.069 245.223 113.21 244.714 113.821C244.206 114.432 243.285 114.597 242.446 114.664C241.743 113.671 240.531 113.152 239.319 112.633C238.092 112.107 236.865 111.582 236.172 110.565ZM257.699 123.436C257.285 123.373 257.005 123 256.733 122.636C256.429 122.231 256.134 121.837 255.673 121.892C254.057 122.082 253.068 120.196 252.557 118.639C252.353 118.017 252.552 116.966 253.156 117.209C254.702 118.908 256.841 120.047 259.104 120.377C259.981 120.504 261.11 120.715 261.261 121.595L258.662 123.131C258.366 123.306 258.039 123.488 257.699 123.436ZM250.142 127.403C245.098 129.16 238.788 126.895 236.401 122.471C236.136 121.979 235.218 122.186 235 122.697C234.782 123.207 235.033 123.778 235.322 124.258C236.798 126.714 239.388 128.589 242.342 129.34C245.295 130.091 248.574 129.708 251.225 128.302C251.062 127.822 250.656 127.224 250.142 127.403ZM245.218 116.249C245.652 115.671 246.133 115.085 246.797 114.804C247.461 114.523 248.357 114.658 248.716 115.285C247.391 116.478 246.192 117.814 245.149 119.262C244.753 119.812 244.362 120.451 244.469 121.121C244.577 121.791 245.476 122.305 245.955 121.826C246.313 121.468 247.011 121.842 247.041 122.348C247.07 122.854 246.614 123.286 246.122 123.401C245.629 123.515 245.116 123.39 244.63 123.251C243.774 123.006 242.824 122.615 242.531 121.772C242.263 120.998 242.664 120.165 243.078 119.46C243.73 118.35 244.445 117.277 245.218 116.249ZM303.161 75.8225C304.181 75.9031 305.504 76.5845 305.088 77.448C304.367 78.009 303.375 77.8202 302.404 77.6353L302.403 77.6353C302.114 77.5803 301.827 77.5257 301.549 77.4912C300.367 77.3443 299.182 77.607 298.002 77.8688C296.699 78.1576 295.402 78.4454 294.116 78.1807C293.768 77.9601 293.825 77.4339 294.119 77.1542C294.414 76.8745 294.851 76.7768 295.263 76.6915C297.861 76.154 300.508 75.613 303.161 75.8225ZM318.634 76.537C320.397 76.754 322.199 76.7107 323.947 76.4094C324.214 75.5905 322.963 75.1087 322.027 75.0182L317.635 74.5938C316.687 74.5021 315.665 74.4235 314.838 74.8558C314.011 75.2882 313.602 76.4522 314.312 77.0308C315.307 76.1168 316.918 76.3203 318.349 76.5012C318.445 76.5134 318.54 76.5254 318.634 76.537ZM320.618 82.9639C320.557 83.1471 320.315 83.211 320.11 83.2381C318.222 83.4864 316.236 83.0149 314.713 81.9573C314.35 81.7052 313.989 81.3794 313.95 80.9619C313.911 80.5443 314.399 80.1007 314.801 80.2967C316.904 81.3231 319.665 81.0608 321.496 79.6607C321.931 79.3284 322.664 79.7318 322.723 80.2497C322.782 80.7676 322.371 81.2426 321.888 81.5132C321.6 81.675 321.283 81.7856 320.967 81.8963C320.754 81.9706 320.541 82.045 320.336 82.1351C320.249 82.4301 320.364 82.7675 320.618 82.9639ZM314.779 91.7389C316.238 90.6878 317.572 88.9171 316.941 87.2439C314.325 90.7551 309.774 92.7572 305.386 92.3277C304.636 92.2543 303.986 92.9767 303.92 93.7195C303.853 94.4623 304.226 95.1779 304.686 95.7688C306.812 98.5005 310.968 99.2408 314.154 97.8443C317.34 96.4478 319.501 93.2444 320.125 89.8523C320.253 89.1587 320.308 88.3882 319.913 87.8015C319.518 87.2147 318.506 87.0283 318.118 87.6198C318.796 88.5853 318.775 89.8814 318.47 91.0174C317.837 93.3763 316.047 95.4024 313.769 96.3382C311.49 97.274 308.776 97.0982 306.641 95.8767C306.298 95.6807 305.948 95.4316 305.829 95.0582C305.71 94.6848 305.965 94.187 306.36 94.2077C309.341 94.3644 312.366 93.4771 314.779 91.7389ZM304.977 81.0734C303.453 84.3894 299.13 85.1988 295.793 84.0903C294.836 83.7722 294.976 82.1225 295.831 81.5686C296.686 81.0146 297.782 81.2187 298.763 81.4474C299.743 81.6761 300.832 81.8954 301.7 81.3637C302.04 81.1551 302.31 80.8501 302.58 80.5445C302.811 80.283 303.043 80.021 303.32 79.8185C303.92 79.3794 304.978 79.4299 305.146 80.1788C305.213 80.4807 305.106 80.7942 304.977 81.0734ZM307.177 80.0905L306.469 86.1495C306.415 86.61 306.365 87.0979 306.564 87.5183C306.867 88.1571 307.7 88.4418 308.397 88.273C309.095 88.1043 309.652 87.5702 310.012 86.961C310.379 86.3397 310.145 85.1675 309.455 85.4086C309.27 85.4732 309.138 85.6344 309.008 85.7925C308.853 85.9826 308.701 86.1682 308.465 86.176C307.918 86.1941 307.927 85.3756 308.109 84.8704C308.866 82.7688 308.982 80.4502 308.44 78.2858C307.618 78.2573 307.27 79.2891 307.177 80.0905ZM256.005 112.466C258.354 113.324 260.471 114.8 262.082 116.703C262.27 116.925 262.459 117.167 262.505 117.454C262.575 117.879 262.27 118.33 261.849 118.428C259.428 115.697 256.077 113.796 252.48 113.111C253.032 111.922 254.768 112.014 256.005 112.466ZM241.295 390.809C240.651 390.755 239.991 390.7 239.445 390.472C239.15 390.348 238.89 390.173 238.631 389.997C238.383 389.83 238.135 389.662 237.856 389.54C237.283 389.289 236.434 389.325 236.172 389.832C238.063 391.543 241.048 392.284 243.699 391.7C243.263 390.975 242.298 390.894 241.295 390.809ZM335.756 356.578L340.517 355.551C340.93 355.462 341.521 355.534 341.546 356.052C339.385 357.906 336.552 358.503 334.019 357.637C334.361 356.927 335.099 356.72 335.756 356.578ZM269.003 241.211C268.049 241.444 267.09 241.678 266.279 242.189C268.094 243.047 270.3 242.481 272.148 241.688C276.305 239.904 279.908 237.018 282.423 233.456C283.398 232.076 284.235 230.376 283.644 228.819C282.699 228.993 282.257 229.981 281.898 230.814C279.78 235.724 275.12 239.618 269.651 241.049C269.437 241.105 269.222 241.157 269.005 241.21L269.003 241.211ZM350.327 243.392C349.83 244.114 348.698 243.9 347.887 243.543C341.601 240.775 337.406 233.996 337.809 227.258C337.827 226.961 337.866 226.634 338.088 226.431C338.31 226.227 338.77 226.284 338.815 226.579C339.228 229.238 339.648 231.923 340.652 234.427C341.656 236.93 343.31 239.272 345.685 240.622C346.177 240.902 346.7 241.141 347.224 241.38C348.38 241.909 349.533 242.436 350.327 243.392ZM287.164 359.975C285.647 359.568 284.121 359.158 282.586 359.316C285.604 361.822 290.178 362.503 293.864 360.997C293.999 360.406 292.99 360.356 292.37 360.502C290.646 360.91 288.91 360.444 287.164 359.975ZM301.232 227.545C301.843 227.675 302.329 227.055 302.645 226.516C303.969 224.258 304.833 223.436 306.563 221.791L306.678 221.682C306.769 222.935 306.868 223.667 306.966 224.398L306.966 224.399C307.064 225.131 307.162 225.863 307.254 227.116C307.283 227.522 307.323 227.955 307.573 228.277C308.271 229.175 309.748 228.403 310.342 227.433C311.719 225.182 311.31 221.998 309.409 220.168C308.921 219.699 309.641 218.817 310.306 218.948C310.971 219.078 311.378 219.739 311.662 220.354C312.486 222.14 312.965 224.165 312.528 226.083C312.092 228.001 310.578 229.752 308.631 230.038C307.944 230.139 307.179 230.035 306.678 229.554C306.128 229.026 306.026 228.198 305.956 227.44L305.727 224.97C305.08 225.363 304.666 226.026 304.254 226.686C303.803 227.41 303.353 228.129 302.601 228.482C301.417 229.039 299.903 228.34 299.29 227.184C298.676 226.029 298.831 224.586 299.383 223.401C299.935 222.215 300.839 221.234 301.741 220.286C302.286 219.712 302.867 219.122 303.62 218.877C304.373 218.633 305.343 218.864 305.669 219.585C302.774 220.266 300.514 223.046 300.441 226.017C300.426 226.641 300.621 227.415 301.232 227.545ZM208.683 381.108C208.799 381.272 208.982 381.354 209.159 381.421C212.485 382.692 216.069 380.972 219.246 379.287C219.608 379.095 220.035 378.65 219.793 378.292C219.67 378.108 219.434 378.09 219.23 378.101C217.998 378.168 216.806 378.72 215.628 379.266C214.027 380.008 212.453 380.738 210.84 380.217C210.717 380.178 210.594 380.131 210.471 380.084C210.095 379.94 209.717 379.795 209.33 379.858C208.815 379.942 208.358 380.651 208.683 381.108Z" fill="#00160A"/>
<path fill-rule="evenodd" clip-rule="evenodd" d="M259.124 68.6735C259.465 70.831 260.734 72.8631 262.616 74.2658C263.393 74.8451 263.826 75.768 263.741 76.6645C263.943 77.0987 263.02 77.1315 262.601 76.8442C260.145 75.1619 258.36 72.7279 257.621 70.0574C257.48 69.5476 257.392 68.9613 257.743 68.5386C258.095 68.1159 259.042 68.1537 259.124 68.6735V68.6735Z" fill="#00160A"/>
<path fill-rule="evenodd" clip-rule="evenodd" d="M250.092 95.1589C251.624 94.2148 253.271 93.002 254.989 93.4255C250.099 98.9785 242.291 100.436 235.315 99.2023C234.734 99.0995 234.09 98.9343 233.774 98.3937C233.458 97.8531 233.862 96.9102 234.426 97.093C239.602 98.7695 245.393 98.0545 250.092 95.1589V95.1589Z" fill="#00160A"/>
<circle cx="233.416" cy="118.856" r="2.864" fill="#FFB61D"/>
<circle cx="254.896" cy="128.164" r="2.864" fill="#FFB61D"/>
<circle cx="299.646" cy="91.29" r="1.79" fill="#FFB61D"/>
<circle cx="323.274" cy="89.858" r="1.79" fill="#FFB61D"/>
</svg>
